<svg xmlns="http://www.w3.org/2000/svg" data-name="Layer 1" width="982.89" height="803.03"><rect id="backgroundrect" width="100%" height="100%" x="0" y="0" fill="none" stroke="none"/><title>exams</title><g class="currentLayer" style=""><title>Layer 1</title><path d="M958.9899969482422,465.5099983215332 c0,0.6100000000000001 0,1.22 0,1.82 q-0.16000000000000003,15.78 -1.87,31.48 a1.11,1.11 0 0 1 0,0.19000000000000003 c-0.09000000000000002,0.8700000000000001 -0.19000000000000003,1.73 -0.29000000000000004,2.6 c-0.17,1.47 -0.35000000000000003,2.93 -0.55,4.4 a316.48,316.48 0 0 1 -11.53,52.79 h0 a284.68,284.68 0 0 1 -30.1,66.28 q-5.92,9.5 -12.61,18.39 h0 c-2.38,3.14 -4.8100000000000005,6.21 -7.32,9.23 q-2.64,3.17 -5.38,6.24 l-1.1400000000000001,1.26 a296.69,296.69 0 0 1 -31,29.46 c-18,14.92 -37.38,27.9 -57.07,39.94 c-1.12,0.6900000000000002 -2.25,1.37 -3.38,2 a1.6500000000000001,1.6500000000000001 0 0 1 -0.25,0.15000000000000002 c-26.76,16.18 -54.51,30.78 -83.1,42.47 c-31.3,12.83 -63.62,22.16 -96.78,26.24 c-46.22,5.68 -93,1.06 -138.94,-6.88 a902.93,902.93 0 0 1 -113,-27 l-6.1,-1.9100000000000001 q-4.74,-1.51 -9.47,-3.08 q-28.57,-9.45 -56.5,-21 a742.68,742.68 0 0 1 -133.33,-71.59 q-8,-5.38 -15.77,-11 q-10.86,-7.82 -21.46,-16.1 L117.6899969482422,638.5099983215332 a448.26,448.26 0 0 1 -51.82,-47.59 c-21.52,-23.42 -39.91,-49.84 -52,-80 q-2.8600000000000003,-7.11 -5.24,-14.49 l-0.15000000000000002,-0.49000000000000005 c-0.8,-2.5 -1.54,-5 -2.22,-7.6 q-1.5,-5.58 -2.63,-11.3 c-0.16000000000000003,-0.7300000000000001 -0.30000000000000004,-1.46 -0.43000000000000005,-2.2 a189.21,189.21 0 0 1 -3.15,-38.93 a180,180 0 0 1 4,-34 h0 a153.38,153.38 0 0 1 11.33,-33.57 l0,0 a121,121 0 0 1 17.33,-26.73 h0 a102.23,102.23 0 0 1 16.33,-15.26 c10.85,-8.08 22.88,-13.71 35.35,-18.16 h0 c5.86,-2.1 11.8,-3.94 17.77,-5.65 c4.23,-1.22 8.48,-2.38 12.71,-3.52 l12.48,-3.37 c8,-2.18 16,-4.42 23.88,-6.84 c21.48,-6.5600000000000005 42.53,-14.5 62,-26.34 c3.08,-1.87 6.22,-3.92 9.36,-6.12 c4,-2.7800000000000002 7.94,-5.8 11.84,-9.06 h0 c3.94,-3.3 7.8,-6.83 11.48,-10.57 c0.5700000000000001,-0.5800000000000001 1.13,-1.1600000000000001 1.6900000000000002,-1.75 c3,-3.16 5.91,-6.47 8.61,-9.91 c1.32,-1.6800000000000002 2.6,-3.39 3.8200000000000003,-5.13 c1.6900000000000002,-2.41 3.29,-4.86 4.77,-7.38 h0 c7.42,-12.6 12,-26.5 11.46,-41.15 a63.3,63.3 0 0 0 -0.6500000000000001,-7.21 c-1.3,-8.83 -2.55,-17.45 -3.47,-25.88 c-3.8600000000000003,-34.87 -2.23,-66.49 23.94,-96.2 c32.54,-36.93 83.61,-44.46 130.1,-41.51 c134.41,8.5 256.77,85.24 364.3,176.6 q13.95,11.84 27.56,24 q3.43,3.06 6.87,6.16 c17,15.31 33.74,31.19 49.33,48.2 c1.26,1.3800000000000001 2.52,2.7600000000000002 3.7600000000000002,4.15 c0.7600000000000001,0.8600000000000001 1.53,1.71 2.2800000000000002,2.58 q7.29,8.25 14.15,16.9 a320.16,320.16 0 0 1 32.32,49 a278.17,278.17 0 0 1 28.38,86.67 h0 a308.82,308.82 0 0 1 3.43,33.17 c0.17,3.27 0.28,6.55 0.3400000000000001,9.82 c0,1.05 0,2.09 0,3.14 C958.9999969482421,462.5099983215332 958.9999969482421,463.9899983215332 958.9899969482422,465.5099983215332 z" fill="#009809" opacity="0.1" id="svg_1" class="" fill-opacity="1"/><polygon points="393.98 448.74 377.98 733.53 393.98 733.74 406.98 444.74 393.98 448.74" fill="#3f3d56" id="svg_2"/><rect x="136.97999572753906" y="593.030029296875" width="198" height="43" fill="#6c63ff" id="svg_3"/><path d="M347.97999694824216,631.0199983215332 v27 H143.4499969482422 q-10.86,-7.82 -21.46,-16.1 v-10.9 z" fill="#3f3d56" id="svg_4"/><path d="M388.8199969482422,569.5699983215331 c-0.56,2.59 -1.29,5.15 -2.06,7.7 c-2.27,7.37 -5,14.64 -5.53,22.3 c-0.7100000000000001,10.12 2,21.89 -5,29.24 c-1.8,1.9 -4.15,3.3200000000000003 -5.76,5.35 a9.37,9.37 0 0 0 -0.6800000000000002,1 c-1.44,2.38 -1.61,5.28 -1.6300000000000001,8 A140,140 0 0 0 369.28999694824216,660.5099983215332 c2.37,19.8 7.05,39.64 0.9,58.33 a89.92,89.92 0 0 1 -3.89,9.51 c-3,6.6 -6.27,13.11 -7.25,20.26 c-0.7200000000000001,5.3 -0.5,10.76 -0.54,16.15 q-4.74,-1.51 -9.47,-3.08 q-28.57,-9.45 -56.5,-21 c0.05000000000000001,-0.27 0.1,-0.55 0.14,-0.8200000000000001 c1.4300000000000002,-8.9 -0.53,-18 -2.91,-26.68 c-5,-18.39 -12.08,-36.6 -16.27,-55.12 a139.48,139.48 0 0 1 -3.31,-22 c-0.12000000000000001,-1.6600000000000001 -0.19000000000000003,-3.33 -0.2,-5 c-0.05000000000000001,-2.18 0,-4.36 0.09000000000000002,-6.5600000000000005 c0.21000000000000002,-4.39 0.4,-9.6 -3.11,-12.27 c-1.9300000000000002,-1.45 -4.48,-1.7000000000000002 -6.73,-2.58 c-4.34,-1.6900000000000002 -7.3100000000000005,-5.61 -10.75,-8.75 a14.09,14.09 0 0 0 -12.59,-3.7 c-22.48,5.15 -39,24.22 -59.92,33.86 c-0.81,0.38000000000000006 -1.62,0.7400000000000001 -2.44,1.08 a35.55,35.55 0 0 0 -7.67,3.92 a8.74,8.74 0 0 0 -3.44,4.85 c-0.53,2.12 -0.07,4.34 0.19000000000000003,6.52 a33.29,33.29 0 0 1 -0.45,10.63 a32.45,32.45 0 0 1 -1.07,4 c-0.8,2.37 -1.87,4.69 -2.89,7 q-8,-5.38 -15.77,-11 q-10.86,-7.82 -21.46,-16.1 L117.6899969482422,638.5099983215332 a448.26,448.26 0 0 1 -51.82,-47.59 c2.13,-6 5.21,-11.58 6.69,-17.73 c0.8400000000000001,-3.5300000000000002 1.15,-7.2 2.31,-10.63 a38.22,38.22 0 0 1 5.52,-9.9 a134,134 0 0 1 30.74,-30.76 c12.39,-8.88 26.7,-16 37.85,-26.08 A59.73,59.73 0 0 0 160.5499969482422,482.1099983215332 c0.19000000000000003,-0.31000000000000005 0.37000000000000005,-0.6400000000000001 0.53,-1 a20.75,20.75 0 0 0 1.79,-5.72 c0.8,-4.48 0.6800000000000002,-9.4 1.08,-13.7 a146.13,146.13 0 0 0 41.13,1.24 c15.95,-1.79 31.55,-6.22 47.5,-7.94 c1.2,-0.14 2.41,-0.25 3.62,-0.35000000000000003 c5.11,-0.41000000000000003 10.23,-0.5 15.36,-0.44000000000000006 c4.29,0 8.58,0.19000000000000003 12.870000000000001,0.33000000000000007 l47.23,1.6 c5.23,0.18000000000000002 10.57,0.38000000000000006 15.44,2.29 c5.78,2.27 10.41,6.79 14.12,11.76 c0.47000000000000003,0.6400000000000001 0.9400000000000001,1.28 1.3800000000000001,1.94 A61,61 0 0 1 369.8799969482422,486.5099983215332 c0.19000000000000003,0.52 0.37000000000000005,1 0.54,1.57 c0.45,1.3900000000000001 0.8400000000000001,2.79 1.19,4.21 c0.27,1.11 0.51,2.22 0.7300000000000001,3.34 c1.1,5.54 1.75,11.2 3.49,16.55 c0.12000000000000001,0.39000000000000007 0.25,0.78 0.39000000000000007,1.1600000000000001 c2.09,5.86 5.5600000000000005,11.11 8.18,16.74 a62.17,62.17 0 0 1 4.3,12.73 A62.91,62.91 0 0 1 388.8199969482422,569.5699983215331 z" fill="#35323e" id="svg_5"/><path d="M245.2599969482422,211.6999983215332 c-4.22,-3.36 -10.34,-0.9 -15.28,1.27 a98.09,98.09 0 0 1 -12.76,4.61 a5.39,5.39 0 0 1 -2.8,0.29000000000000004 c-2,-0.48000000000000004 -2.84,-2.85 -4.33,-4.29 c-2.59,-2.49 -6.83,-1.9 -10.17,-0.55 s-6.640000000000001,3.3 -10.22,3 c-3.8200000000000003,-0.30000000000000004 -7.14,-3.12 -11,-3.21 c-6.8,-0.16000000000000003 -12.51,8.22 -18.94,6 c-3.92,-1.35 -7,-6.45 -10.86,-5 c-3,1.1400000000000001 -3.27,5.29 -5.08,8 c-2.13,3.16 -6.28,4.05 -9.83,5.45 c-11.19,4.42 -18.6,16.89 -17.14,28.83 c0.81,6.59 4,12.63 6.11,18.92 c6.26,18.29 4.11,38.92 12,56.56 c1,-0.9400000000000001 1.56,-1.29 2.5300000000000002,-2.22 a23.14,23.14 0 0 0 -1.35,16.6 c0.8300000000000001,2.77 2.18,5.35 3.2,8.06 a72.24,72.24 0 0 1 2.56,9.3 l8.7,38.38 c3.4,15 6.8100000000000005,30 7.4,45.36 a132.38,132.38 0 0 1 -2.2800000000000002,29.8 c15.76,-2.6100000000000003 30.18,-9.6 46.15,-9.51 c5.86,0 11.67,1 17.48,1.8 a359.84,359.84 0 0 0 51.13,3.47 a20.3,20.3 0 0 0 7.84,-1.1 c2.2,-0.9400000000000001 4,-2.6100000000000003 6.08,-3.8200000000000003 c4.07,-2.4 9,-3 13.69,-3 c21.39,-0.39000000000000007 42,7.44 63.25,10.2 c8.39,-17.61 8.89,-38.71 2.45,-57.12 c-1.9100000000000001,-5.47 -4.48,-10.8 -5.24,-16.55 a83.72,83.72 0 0 1 -0.24000000000000002,-10.63 a77.11,77.11 0 0 0 -4.83,-26.58 c-1.24,-3.33 -2.73,-6.72 -2.6,-10.27 s1.8800000000000001,-6.86 3.6,-10 c3.49,-6.4 7,-12.86 11.93,-18.26 c5.05,-5.58 11.37,-9.83 17.62,-14 l15.43,-10.36 c-2.11,-13.33 -4.83,-27.37 -10.48,-39.63 S374.8799969482422,237.96999832153318 363.4499969482422,230.79999832153322 a84.36,84.36 0 0 0 -12.06,-6 c-5.84,-2.46 -11.92,-4.63 -18.25,-5 c-7.2,-0.41000000000000003 -14.29,1.52 -21.4,2.72 C289.3599969482422,226.28999832153318 263.0199969482422,225.8299983215332 245.2599969482422,211.6999983215332 z" fill="#6c63ff" id="svg_6"/><path d="M413.97999694824216,443.0199983215332 l-7.34,9.27 l-13.84,17.47 l-16,20.19 l-4.47,5.640000000000001 h-8.67 l-214.69,0.25 l-134.45,0.15000000000000002 h-6 c-0.8,-2.5 -1.54,-5 -2.22,-7.6 q-1.5,-5.58 -2.63,-11.3 c-0.16000000000000003,-0.7300000000000001 -0.30000000000000004,-1.46 -0.43000000000000005,-2.2 l48.78,-31.89 l18.34,-0.1 h0 l56.1,-0.32000000000000006 h0 l31.33,-0.18000000000000002 l5.72,0 l3.59,0 h0 l20.88,-0.11000000000000001 h0 l159.14,-0.91 h0 l8.14,-0.05000000000000001 h0 l3.5300000000000002,0 l9.35,-0.05000000000000001 l34.79,-0.2 l6.68,-2.54 l0.49000000000000005,0.52 z" fill="#3f3d56" id="svg_7"/><path d="M410.97999694824216,438.0199983215332 l-0.8300000000000001,1 l-5.46,6.43 L393.4499969482422,458.7199983215332 L369.8799969482422,486.5099983215332 l-208.8,-5.33 l-157.45,-4 c-0.16000000000000003,-0.7300000000000001 -0.30000000000000004,-1.46 -0.43000000000000005,-2.2 a189.21,189.21 0 0 1 -3.15,-38.93 l17.46,-8.94 l4,-2.06 l31.13,-16 l27.32,-14 l71.26,9.26 l15.78,2.05 l7.14,0.92 l10.45,1.36 l0.8800000000000001,0.12000000000000001 L349.3399969482422,430.0099983215332 L367.4499969482422,432.3599983215332 l10.63,1.3800000000000001 l32.76,4.26 z" fill="#504f60" id="svg_8"/><path d="M376.97999694824216,486.0199983215332 l-0.17,3.93 l-1,22.19 l-5.38,122 L369.28999694824216,660.5099983215332 l-3,67.84 l-1.6900000000000002,38.32 l-6.1,-1.9100000000000001 q-4.74,-1.51 -9.47,-3.08 l14.63,-266 l0.31000000000000005,-5.58 l6.44,-2 z" fill="#3f3d56" id="svg_9"/><path d="M14.979996948242189,485.72999832153323 l-0.45,10.27 l-0.6600000000000001,15 q-2.8600000000000003,-7.11 -5.24,-14.49 l-0.15000000000000002,-0.49000000000000005 c-0.8,-2.5 -1.54,-5 -2.22,-7.6 z" fill="#3f3d56" id="svg_10"/><ellipse cx="276.4800109863281" cy="272.5299987792969" rx="46" ry="62" fill="#a1616a" id="svg_11"/><ellipse cx="276.4800109863281" cy="272.5299987792969" rx="46" ry="62" opacity="0.1" id="svg_12"/><circle cx="282.9800109863281" cy="235.02999877929688" r="64" fill="#a1616a" id="svg_13"/><path d="M284.2499969482422,136.3899983215332 a81.94,81.94 0 0 0 -11.61,1.77 c-10.12,2.46 -18.87,7.92 -27.39,13.28 c-3.8200000000000003,2.41 -7.75,4.92 -10.12,8.46 c-4.26,6.35 -2.6100000000000003,14.43 -5,21.48 c-1.24,3.62 -3.52,6.87 -5.45,10.24 c-5.3100000000000005,9.24 -8.09,19.39 -10.82,29.44 c-0.56,2.08 -0.7200000000000001,4.9 1.55,5.7 a6.25,6.25 0 0 0 3.88,-0.44000000000000006 c7.17,-2.37 16.28,-3.05 21.6,1.7600000000000002 s4.87,13.34 11.2,17 c7.25,4.23 18.57,-0.8800000000000001 25.15,4.11 c2.8200000000000003,2.14 3.84,5.57 6.15,8.15 c5.38,6 15.73,5.71 24.34,4.5 c4.94,-0.7000000000000001 11,-1.17 14,2.3 c1.44,1.6400000000000001 1.85,3.89 3.52,5.37 c3,2.68 8.49,1.32 11.42,-1.4300000000000002 s4.33,-6.47 6.77,-9.56 c4.75,-6 13.1,-9.27 18,-15.2 c4.1,-5 5.34,-11.26 6.46,-17.3 l4.17,-22.39 c1.6900000000000002,-9.08 3.23,-19 -1.8800000000000001,-27 c-1.82,-2.88 -4.43,-5.36 -6,-8.34 c-1.05,-2 -1.6400000000000001,-4.11 -2.8600000000000003,-6 a24.91,24.91 0 0 0 -5.13,-5.18 l-9.870000000000001,-8.17 a83,83 0 0 0 -10.79,-8 C321.4499969482422,132.7299983215332 300.34999694824216,134.8899983215332 284.2499969482422,136.3899983215332 z" fill="#464353" id="svg_14"/><path d="M73.44999694824219,301.2499983215332 c-2.37,2.52 -4.5600000000000005,5.24 -7.1,7.6 a86,86 0 0 1 -7,5.6 q-5.88,4.4 -11.5,9.11 a64.41,64.41 0 0 0 -10.54,10.53 c-5.34,7.17 -7.87,16.09 -12.870000000000001,23.5 c-4.42,6.57 -10.65,11.76 -15.14,18.28 a28.28,28.28 0 0 0 -4.32,9.07 a42.14,42.14 0 0 0 -0.8900000000000001,9.59 c-0.09000000000000002,5.28 -0.17,10.620000000000001 0.91,15.79 s3.45,10.25 7.51,13.64 c3.77,3.15 8.64,4.6 13.41,5.8 c2.46,0.6100000000000001 5.12,1.18 7.46,0.21000000000000002 a12.3,12.3 0 0 0 4.34,-3.66 l12.17,-14 c8.14,-9.4 16.6,-19 27.77,-24.5 c3.5,-1.71 7.19,-3 10.7,-4.66 c14.88,-7.17 25.4,-21.85 29.48,-37.85 c1,-3.91 1.6400000000000001,-7.9 2.29,-11.89 l1.7600000000000002,-10.94 a3.49,3.49 0 0 0 0,-1.6700000000000002 a3.6,3.6 0 0 0 -1.28,-1.52 a212.12,212.12 0 0 1 -23.74,-22.4 c-1.7400000000000002,-1.92 -3.37,-4.55 -5.38,-6.16 c-2.52,-2 -2.33,-1.85 -5.36,0 A64.27,64.27 0 0 0 73.44999694824219,301.2499983215332 z" fill="#a1616a" id="svg_15"/><path d="M156.6999969482422,374.0499983215332 a1.8800000000000001,1.8800000000000001 0 1 0 -3.38,1.6400000000000001 l-1,0.49000000000000005 l29.82,61.12 l5.39,-2.63 L157.70999694824218,373.5099983215332 z" fill="#3f3d56" id="svg_16"/><path d="M73.44999694824219,301.2499983215332 c-2.37,2.52 -4.5600000000000005,5.24 -7.1,7.6 a86,86 0 0 1 -7,5.6 q-5.88,4.4 -11.5,9.11 a64.41,64.41 0 0 0 -10.54,10.53 c-5.34,7.17 -7.87,16.09 -12.870000000000001,23.5 c-4.42,6.57 -10.65,11.76 -15.14,18.28 a28.28,28.28 0 0 0 -4.32,9.07 a42.14,42.14 0 0 0 -0.8900000000000001,9.59 c-0.09000000000000002,5.28 -0.17,10.620000000000001 0.91,15.79 s3.45,10.25 7.51,13.64 c3.77,3.15 8.64,4.6 13.41,5.8 c2.46,0.6100000000000001 5.12,1.18 7.46,0.21000000000000002 a12.3,12.3 0 0 0 4.34,-3.66 l12.17,-14 c8.14,-9.4 16.6,-19 27.77,-24.5 c3.5,-1.71 7.19,-3 10.7,-4.66 c14.88,-7.17 25.4,-21.85 29.48,-37.85 c1,-3.91 1.6400000000000001,-7.9 2.29,-11.89 l1.7600000000000002,-10.94 a3.49,3.49 0 0 0 0,-1.6700000000000002 a3.6,3.6 0 0 0 -1.28,-1.52 a212.12,212.12 0 0 1 -23.74,-22.4 c-1.7400000000000002,-1.92 -3.37,-4.55 -5.38,-6.16 c-2.52,-2 -2.33,-1.85 -5.36,0 A64.27,64.27 0 0 0 73.44999694824219,301.2499983215332 z" opacity="0.04" id="svg_17"/><path d="M418.1899969482422,413.8899983215332 c-0.1,6.38 -0.35000000000000003,12.95 -3,18.77 c-1.1400000000000001,2.52 -2.91,5 -5.5600000000000005,5.83 a12.94,12.94 0 0 1 -4.890000000000001,0.18000000000000002 a176.67,176.67 0 0 0 -58.49,4.640000000000001 c5.1,-10.2 2.17,-22.43 3.58,-33.75 c0.39000000000000007,-3.09 1.1,-6.13 1.37,-9.23 c1,-11 -3.71,-21.68 -5.87,-32.54 a72.8,72.8 0 0 1 0,-28.48 a19,19 0 0 1 2.45,-6.85 a16.08,16.08 0 0 1 5.62,-4.890000000000001 c8.1,-4.61 17.65,-5.14 26.75,-4.53 c6.13,0.41000000000000003 18.42,-0.17 23.53,3.6 c5.59,4.13 7.36,18 8.870000000000001,24.41 a206.48,206.48 0 0 1 4.6,29.87 C418.12999694824214,391.8799983215332 418.3399969482422,402.8899983215332 418.1899969482422,413.8899983215332 z" fill="#a1616a" id="svg_18"/><polygon points="59.98 436.03 95.98 460.03 257.98 454.03 150.98 436.03 59.98 436.03" fill="#fff" id="svg_19"/><path d="M107.44999694824219,245.3399983215332 c-5.91,5.21 -10.92,11.35 -16.52,16.9 c-7.68,7.62 -16.41,14.1 -25.1,20.55 a18.68,18.68 0 0 1 13,13.1 c0.38000000000000006,1.47 0.5700000000000001,3 1,4.44 c1,3.41 3.2,6.35 5.5600000000000005,9 c10.14,11.43 24.33,19.89 30.31,34 a3.14,3.14 0 0 0 1.2,1.7000000000000002 a2.63,2.63 0 0 0 1.55,0.18000000000000002 c5.41,-0.5700000000000001 9.55,-4.93 13,-9.17 c7.2,-9 13.45,-18.94 17,-29.92 s4.12,-23.12 0.25,-34 c-1.9300000000000002,-5.42 -4.91,-10.4 -7.87,-15.33 q-3.89,-6.47 -7.76,-12.92 c-1.35,-2.27 -3.07,-6.88 -5.72,-8 C121.6299969482422,233.40999832153318 111.11999694824217,241.66999832153323 107.44999694824219,245.3399983215332 z" fill="#6c63ff" id="svg_20"/><path d="M401.9899969482422,309.9699983215332 l8.51,20 a61.83,61.83 0 0 0 -55.9,7.75 c-4.85,3.47 -9.3,7.83 -11.49,13.37 a5.84,5.84 0 0 1 -5.79,-2.27 a11.61,11.61 0 0 1 -2.14,-6.12 c-0.79,-7.68 2.12,-15.21 5,-22.39 c1.34,-3.36 2.72,-6.79 5.1,-9.52 s5.54,-4.53 8.7,-6.23 a193.74,193.74 0 0 1 31.55,-13.94 c4.6,-1.49 9.42,-1.46 12,2.84 C400.5199969482422,298.5899983215332 399.6499969482422,304.5099983215332 401.9899969482422,309.9699983215332 z" fill="#6c63ff" id="svg_21"/><path d="M60.1899969482422,369.97999832153323 c2.13,1.7000000000000002 4,3.71 6.19,5.33 a44.22,44.22 0 0 0 7.36,4.13 l9.86,4.74 a55.25,55.25 0 0 0 9.55,3.88 c4.22,1.13 8.65,1.24 12.89,2.29 c5.35,1.32 10.24,4.07 15.51,5.66 s11.44,1.85 15.84,-1.46 c2.75,-2.07 4.83,-5.49 8.24,-6 c2.2,-0.29000000000000004 4.32,0.77 6.28,1.8 l25.66,13.49 c3.46,1.82 7.12,3.84 8.93,7.3100000000000005 s0.5900000000000001,8.74 -3.22,9.64 a35.18,35.18 0 0 1 -4,0.23 c-1.32,0.16000000000000003 -2.7600000000000002,0.9400000000000001 -2.94,2.27 a4.5600000000000005,4.5600000000000005 0 0 0 0.6300000000000001,2.35 c1.15,2.64 1.49,5.8 0.15000000000000002,8.36 s-4.63,4.15 -7.26,3 c0.45,3.87 -3.7600000000000002,6.58 -7.51,7.61 c-9.46,2.59 -19.49,1 -29.16,-0.6400000000000001 c-3.8,-0.6400000000000001 -7.66,-1.3 -11.12,-3 c-1.6600000000000001,-0.81 -3.2,-1.85 -4.88,-2.6 c-4.61,-2.05 -9.85,-1.78 -14.89,-1.6900000000000002 c-23.31,0.41000000000000003 -46.42,-3.91 -69.34,-8.21 c-4.25,-0.8 -8.620000000000001,-1.6500000000000001 -12.25,-4 c-7,-4.5600000000000005 -9.6,-13.92 -8.45,-22.2 s5.35,-15.78 9.48,-23.06 l5.35,-9.43 a12.14,12.14 0 0 1 2.88,-3.8 C37.839996948242174,359.9699983215332 53.44999694824219,364.5599983215332 60.1899969482422,369.97999832153323 z" fill="#a1616a" id="svg_22"/><path d="M60.1899969482422,369.97999832153323 c2.13,1.7000000000000002 4,3.71 6.19,5.33 a44.22,44.22 0 0 0 7.36,4.13 l9.86,4.74 a55.25,55.25 0 0 0 9.55,3.88 c4.22,1.13 8.65,1.24 12.89,2.29 c5.35,1.32 10.24,4.07 15.51,5.66 s11.44,1.85 15.84,-1.46 c2.75,-2.07 4.83,-5.49 8.24,-6 c2.2,-0.29000000000000004 4.32,0.77 6.28,1.8 l25.66,13.49 c3.46,1.82 7.12,3.84 8.93,7.3100000000000005 s0.5900000000000001,8.74 -3.22,9.64 a35.18,35.18 0 0 1 -4,0.23 c-1.32,0.16000000000000003 -2.7600000000000002,0.9400000000000001 -2.94,2.27 a4.5600000000000005,4.5600000000000005 0 0 0 0.6300000000000001,2.35 c1.15,2.64 1.49,5.8 0.15000000000000002,8.36 s-4.63,4.15 -7.26,3 c0.45,3.87 -3.7600000000000002,6.58 -7.51,7.61 c-9.46,2.59 -19.49,1 -29.16,-0.6400000000000001 c-3.8,-0.6400000000000001 -7.66,-1.3 -11.12,-3 c-1.6600000000000001,-0.81 -3.2,-1.85 -4.88,-2.6 c-4.61,-2.05 -9.85,-1.78 -14.89,-1.6900000000000002 c-23.31,0.41000000000000003 -46.42,-3.91 -69.34,-8.21 c-4.25,-0.8 -8.620000000000001,-1.6500000000000001 -12.25,-4 c-7,-4.5600000000000005 -9.6,-13.92 -8.45,-22.2 s5.35,-15.78 9.48,-23.06 l5.35,-9.43 a12.14,12.14 0 0 1 2.88,-3.8 C37.839996948242174,359.9699983215332 53.44999694824219,364.5599983215332 60.1899969482422,369.97999832153323 z" opacity="0.04" id="svg_23"/><path d="M365.4499969482422,387.2599983215332 c-5.21,2.46 -11.19,2.7 -16.63,4.59 s-10.06,5.29 -15.05,8.06 c-13,7.26 -28,10 -42.73,12.61 c-8.93,1.6 -18,3.2 -27,2.8200000000000003 c-12.18,-0.52 -23.88,-4.58 -35.68,-7.640000000000001 s-24.39,-5.12 -36.08,-1.6800000000000002 a40.61,40.61 0 0 0 -26.5,25.43 c-2.45,7.19 -2.79,14.94 -2.3200000000000003,22.52 c2.46,1.81 5.9,-0.7000000000000001 7.24,-3.45 s2.07,-6.12 4.67,-7.72 c4.51,1.53 5.61,7.54 9.33,10.51 c2.3200000000000003,1.86 5.42,2.35 8.37,2.77 l15.2,2.16 c3.66,0.52 7.91,0.8700000000000001 10.56,-1.71 c1.29,-1.25 2,-3 3.18,-4.34 c2.42,-2.68 6.46,-3.14 10.06,-2.7800000000000002 c11.24,1.12 21.78,8.41 32.94,6.68 c3.84,-0.5900000000000001 7.41,-2.23 11.07,-3.52 c21.69,-7.66 45.79,-3 68.36,-7.39 c8.61,-1.6700000000000002 16.9,-4.63 25.09,-7.75 c4.45,-1.6900000000000002 8.95,-3.46 12.75,-6.32 a26.84,26.84 0 0 0 10.36,-23.81 a27.22,27.22 0 0 0 -9.61,-17.64 c-1.7600000000000002,-1.5 -4.07,-4.37 -6.18,-5.3100000000000005 C372.8199969482422,382.5799983215332 368.8699969482422,385.6499983215332 365.4499969482422,387.2599983215332 z" fill="#a1616a" id="svg_24"/><g opacity="0.1" id="svg_25"><path d="M336.22999694824216,259.5099983215332 c-1.6700000000000002,-1.48 -2.08,-3.73 -3.52,-5.37 c-3,-3.47 -9.06,-3 -14,-2.3 c-8.61,1.21 -19,1.49 -24.34,-4.5 c-2.31,-2.58 -3.33,-6 -6.15,-8.15 c-6.58,-5 -17.9,0.12000000000000001 -25.15,-4.11 c-6.33,-3.6900000000000004 -5.92,-12.25 -11.2,-17 s-14.43,-4.13 -21.6,-1.7600000000000002 a6.25,6.25 0 0 1 -3.88,0.44000000000000006 c-2.27,-0.8 -2.11,-3.62 -1.55,-5.7 c2.73,-10.05 5.51,-20.2 10.82,-29.44 c1.9300000000000002,-3.37 4.21,-6.62 5.45,-10.24 c2.17,-6.34 1.06,-13.51 3.91,-19.51 c-3.06,2 -6,4.18 -7.890000000000001,7 c-4.26,6.35 -2.6100000000000003,14.43 -5,21.48 c-1.24,3.62 -3.52,6.87 -5.45,10.24 c-5.3100000000000005,9.24 -8.09,19.39 -10.82,29.44 c-0.56,2.08 -0.7200000000000001,4.9 1.55,5.7 a6.25,6.25 0 0 0 3.88,-0.44000000000000006 c7.17,-2.37 16.28,-3.05 21.6,1.7600000000000002 s4.87,13.34 11.2,17 c7.25,4.23 18.57,-0.8800000000000001 25.15,4.11 c2.8200000000000003,2.14 3.84,5.57 6.15,8.15 c5.38,6 15.73,5.71 24.34,4.5 c4.94,-0.7000000000000001 11,-1.17 14,2.3 c1.44,1.6400000000000001 1.85,3.89 3.52,5.37 c3,2.68 8.49,1.32 11.42,-1.4300000000000002 A30.32,30.32 0 0 0 343.4499969482422,260.5099983215332 C340.84999694824216,261.2999983215332 338.0799969482422,261.1799983215332 336.22999694824216,259.5099983215332 z" id="svg_26"/><path d="M354.4499969482422,248.5099983215332 a28.41,28.41 0 0 0 -1.79,2.59 c3.84,-2.74 7.91,-5.3 10.78,-8.79 a21.22,21.22 0 0 0 2,-2.88 C361.4499969482422,242.28999832153318 357.28999694824216,244.91999832153323 354.4499969482422,248.5099983215332 z" id="svg_27"/></g><polygon points="556.48 446.53 559.48 733.53 573.48 731.53 570.48 446.53 556.48 446.53" fill="#3f3d56" id="svg_28"/><polygon points="640.48 498.53 643.48 785.53 657.48 783.53 654.48 498.53 640.48 498.53" fill="#3f3d56" id="svg_29"/><path d="M902.0099969482421,643.5099983215332 h0 l-0.06000000000000001,-5.51 l0,-3.2800000000000002 l-0.53,-50.48 l-0.8300000000000001,-78.92 L900.4499969482422,498.5099983215332 H886.4499969482422 l0.07,6.5600000000000005 l0.44000000000000006,42.27 l0.19000000000000003,18.3 h0 l0.16000000000000003,14.82 l0.26,25.62 l0.16000000000000003,15.11 h0 l0,1.6 l0.21000000000000002,19.86 l0.18000000000000002,17.51 l1.1400000000000001,-1.26 q2.75,-3.07 5.38,-6.24 z" fill="#3f3d56" id="svg_30"/><polygon points="624.98 545.03 616.98 556.99 624.98 611.48 692.98 630.09 802.98 630.09 868.98 634.08 900.42 612.56 894.98 575.6 870.98 545.03 624.98 545.03" fill="#6c63ff" id="svg_31"/><path d="M616.9799969482422,556.9899983215332 l-4,33.22 s-21,65.13 148,61.14 s140,-17.28 140,-17.28 l-1,-38.54 s5.890000000000001,18.24 -80,15.77 s-166,-10.45 -166,-10.45 S623.9799969482422,606.1599983215332 616.9799969482422,556.9899983215332 z" fill="#3f3d56" id="svg_32"/><path d="M757.7799969482422,259.22999832153323 c-9.64,4.39 -16.94,12.9 -21.83,22.31 s-7.640000000000001,19.74 -10.35,30 c-2.8600000000000003,10.82 -5.73,21.67 -7.21,32.76 c-2.64,19.72 -0.6600000000000001,40.45 8.4,58.16 s25.8,32 45.4,35.41 c7.57,1.33 15.35,1.06 23,0.27 a187,187 0 0 0 40.61,-8.95 c13.75,-4.65 28.06,-11.81 34.18,-25 c3.55,-7.65 3.85,-16.37 3.68,-24.79 a263.72,263.72 0 0 0 -10.31,-67.79 c-1.85,-6.4 -4,-12.85 -7.92,-18.24 s-9.28,-9.34 -14.75,-13 C817.2899969482422,264.6199983215332 786.5499969482422,246.1499983215332 757.7799969482422,259.22999832153323 z" fill="#fbbebe" id="svg_33"/><path d="M757.7799969482422,259.22999832153323 c-9.64,4.39 -16.94,12.9 -21.83,22.31 s-7.640000000000001,19.74 -10.35,30 c-2.8600000000000003,10.82 -5.73,21.67 -7.21,32.76 c-2.64,19.72 -0.6600000000000001,40.45 8.4,58.16 s25.8,32 45.4,35.41 c7.57,1.33 15.35,1.06 23,0.27 a187,187 0 0 0 40.61,-8.95 c13.75,-4.65 28.06,-11.81 34.18,-25 c3.55,-7.65 3.85,-16.37 3.68,-24.79 a263.72,263.72 0 0 0 -10.31,-67.79 c-1.85,-6.4 -4,-12.85 -7.92,-18.24 s-9.28,-9.34 -14.75,-13 C817.2899969482422,264.6199983215332 786.5499969482422,246.1499983215332 757.7799969482422,259.22999832153323 z" opacity="0.05" id="svg_34"/><path d="M746.9499969482422,385.0999983215332 a45.39,45.39 0 0 0 10,10 c9.52,6.58 21.74,7.47 33.3,7.83 c9.28,0.28 19.92,-0.25 25.74,-7.49 c2.62,-3.26 3.8,-7.42 4.86,-11.47 a508.79,508.79 0 0 0 13.9,-75.77 l26.48,0.09000000000000002 c11.46,49.07 10.52,100.08 9.52,150.47 l-1.45,73.48 l-17.06,-1.81 c-40.51,-4.29 -81.08,-8.58 -121.81,-9.32 a696.78,696.78 0 0 0 -71.52,2.36 L696.0599969482422,413.0099983215332 c4.82,-14.36 9.69,-28.91 10.82,-44 c1.6300000000000001,-21.89 -4.51,-45 4,-65.25 c0.6800000000000002,-1.6300000000000001 1.54,-3.3200000000000003 3.09,-4.17 s3.51,-0.6400000000000001 5.29,-0.41000000000000003 c3.36,0.45 13.63,0 16.07,2.15 c3.6,3.12 1.22,3.59 -0.05000000000000001,8.620000000000001 c-2.27,9 -4.42,17.33 -4.39,26.71 C730.9199969482422,353.6899983215332 736.1999969482422,371.6699983215332 746.9499969482422,385.0999983215332 z" fill="#6c63ff" id="svg_35"/><path d="M902.0099969482421,643.5099983215332 h0 q6.69,-8.88 12.61,-18.39 c-2,-4.28 -4.2,-8.46 -5.95,-12.83 c-2.68,-6.7 -4.22,-13.8 -5.74,-20.85 q-0.78,-3.6 -1.55,-7.2 c-5.6,-26.11 -10.86,-52.59 -11.95,-79.06 q-0.15000000000000002,-3.3 -0.19000000000000003,-6.6 c0,-0.32000000000000006 0,-0.6300000000000001 0,-1 c0,-2.41 0,-4.82 0,-7.22 c0.12000000000000001,-6 0.5,-12.05 1.19,-18.07 c0.13,-1.18 0.28,-2.36 0.44000000000000006,-3.54 c0,-0.26 0.06000000000000001,-0.51 0.1,-0.77 l68,-2.48 h0 l5.72,-0.21000000000000002 c3.93,-0.14 8.09,-0.36000000000000004 11.33,-2.59 c5.45,-3.74 6.09,-11.41 6,-18 a267.16,267.16 0 0 0 -5.640000000000001,-49.55 c-2.58,-12.26 -6.26,-24.79 -14.52,-34.21 c-6.78,-7.74 -16.6,-13.37 -20.13,-23 c-1.31,-3.58 -1.6400000000000001,-7.51 -3.34,-10.93 s-4.51,-5.93 -7.16,-8.57 a119.33,119.33 0 0 1 -22.9,-31.72 c-4.05,-8.16 -8.44,-17.16 -13.73,-22.8 c-0.26,-0.29000000000000004 -0.52,-0.56 -0.79,-0.8200000000000001 c-4.5,-4.45 -9.65,-6.4 -15.75,-3.37 a20.17,20.17 0 0 0 -3.12,1.94 h0 a38,38 0 0 0 -5.93,5.640000000000001 a135,135 0 0 0 -16.13,23 a127.83,127.83 0 0 0 -8.24,18 a124.1,124.1 0 0 0 -4.45,15 c-0.8600000000000001,3.77 -1.54,7.58 -2.08,11.4 c-2,14.36 -2,29 -1.7200000000000002,43.54 c0.30000000000000004,13.36 0.8900000000000001,26.75 2.1,40.06 q0.45,4.83 1,9.65 q1.1,9.53 2.72,19 c0.43000000000000005,2.41 0.8700000000000001,4.82 1.36,7.22 c0.12000000000000001,0.6400000000000001 0.25,1.28 0.38000000000000006,1.9100000000000001 l0.06000000000000001,0.27 a162.47,162.47 0 0 1 3.07,16.91 q0.12000000000000001,1.07 0.18000000000000002,2.13 a82.33,82.33 0 0 1 -0.08000000000000002,9.81 c-0.23,3.8600000000000003 -0.5900000000000001,7.71 -0.77,11.57 c0,0.6800000000000002 0,1.35 -0.07,2 c-0.05000000000000001,1.9500000000000002 0,3.9 0,5.85 a92.72,92.72 0 0 0 1.6600000000000001,13.89 a89.85,89.85 0 0 0 8.65,24.44 c0.38000000000000006,0.7200000000000001 0.77,1.4300000000000002 1.1600000000000001,2.13 c5.07,9.06 11.47,17.37 16.16,26.64 a115,115 0 0 1 9,26.21 q1,4.49 1.9,9 c0.93,4.8 1.7600000000000002,9.64 2.6100000000000003,14.48 c0.08000000000000002,0.48000000000000004 0.17,1 0.26,1.44 c1.13,6.42 2.3200000000000003,12.81 3.85,19.08 c0.8900000000000001,3.6500000000000004 1.8900000000000001,7.25 3.06,10.79 z" fill="#464353" id="svg_36"/><path d="M888.6499969482422,564.6899983215332 c0,0.9 -0.06000000000000001,1.8 -0.1,2.71 A128.18,128.18 0 0 1 887.3399969482422,580.5099983215332 a85.29,85.29 0 0 1 -4.33,17.39 A58.64,58.64 0 0 1 877.8499969482422,608.5099983215332 a48.92,48.92 0 0 1 -6.42,8.27 c-6,6.24 -14.64,8.23 -23,10.86 a56.62,56.62 0 0 0 -11.09,4.53 c-0.6300000000000001,0.35000000000000003 -1.25,0.7300000000000001 -1.85,1.13 l-10.46,6.93 c-3.26,2.15 -6.59,4.38 -8.83,7.57 a16.3,16.3 0 0 0 -1,1.6900000000000002 a38.32,38.32 0 0 0 -3.08,9.24 c-5.44,22.66 -10.89,45.34 -14.620000000000001,68.34 c-0.25,1.52 -0.49000000000000005,3.05 -0.7500000000000001,4.58 l-0.09000000000000002,0.48000000000000004 a2.49,2.49 0 0 0 -0.16000000000000003,-0.33000000000000007 c-26.76,16.18 -54.51,30.78 -83.1,42.47 l-6.21,-52 a62.9,62.9 0 0 1 -0.6400000000000001,-12.78 c0.5900000000000001,-6.73 3.33,-13.11 4.07,-19.82 a33.77,33.77 0 0 0 -3.5700000000000003,-19.07 c-1.18,-2.2800000000000002 -2.66,-4.52 -2.93,-7.07 s1.2,-4.88 3.7600000000000002,-5.14 c2,-2.22 2.16,-5.25 1.57,-8.25 a24,24 0 0 0 -1.4,-4.57 c-1.7000000000000002,-4.18 -3.85,-8.73 -2.39,-13 a4.86,4.86 0 0 0 0.5,-2.5 a0.41000000000000003,0.41000000000000003 0 0 0 0,-0.16000000000000003 c-0.3400000000000001,-1.12 -1.6700000000000002,-1.61 -2.36,-2.56 c-1.3,-1.77 0,-4.18 0.8,-6.22 a23.73,23.73 0 0 0 1.34,-6.8100000000000005 c0.11000000000000001,-1.29 0.19000000000000003,-2.59 0.33000000000000007,-3.87 a39,39 0 0 1 0.93,-5.14 a40.57,40.57 0 0 1 16.43,-23.52 c3.89,-2.62 8.22,-4.53 12.19,-7 a111.66,111.66 0 0 0 11.620000000000001,-9 q13.21,-11 27.47,-20.74 a347,347 0 0 1 31.72,-19.26 q3.5,-1.8900000000000001 7,-3.68 q3.81,-2 7.67,-3.79 c8.24,-3.93 17.59,-2.46 26.7,0.16000000000000003 c3.8200000000000003,1.09 7.59,2.39 11.23,3.5700000000000003 a52,52 0 0 1 10.2,4.58 c8.07,4.74 14.74,11.74 17.51,20.58 a1.09,1.09 0 0 1 0,0.17 C888.6999969482422,552.9199983215332 888.8099969482422,558.8599983215332 888.6499969482422,564.6899983215332 z" fill="#f86d70" id="svg_37"/><path d="M888.6499969482422,564.6899983215332 c0,0.9 -0.06000000000000001,1.8 -0.1,2.71 A128.18,128.18 0 0 1 887.3399969482422,580.5099983215332 a85.29,85.29 0 0 1 -4.33,17.39 A58.64,58.64 0 0 1 877.8499969482422,608.5099983215332 a48.92,48.92 0 0 1 -6.42,8.27 c-6,6.24 -14.64,8.23 -23,10.86 a56.62,56.62 0 0 0 -11.09,4.53 c-0.6300000000000001,0.35000000000000003 -1.25,0.7300000000000001 -1.85,1.13 l-10.46,6.93 c-3.26,2.15 -6.59,4.38 -8.83,7.57 a16.3,16.3 0 0 0 -1,1.6900000000000002 a38.32,38.32 0 0 0 -3.08,9.24 c-5.44,22.66 -10.89,45.34 -14.620000000000001,68.34 c-0.25,1.52 -0.49000000000000005,3.05 -0.7500000000000001,4.58 l-0.09000000000000002,0.48000000000000004 a2.49,2.49 0 0 0 -0.16000000000000003,-0.33000000000000007 c-26.76,16.18 -54.51,30.78 -83.1,42.47 l-6.21,-52 a62.9,62.9 0 0 1 -0.6400000000000001,-12.78 c0.5900000000000001,-6.73 3.33,-13.11 4.07,-19.82 a33.77,33.77 0 0 0 -3.5700000000000003,-19.07 c-1.18,-2.2800000000000002 -2.66,-4.52 -2.93,-7.07 s1.2,-4.88 3.7600000000000002,-5.14 c2,-2.22 2.16,-5.25 1.57,-8.25 a24,24 0 0 0 -1.4,-4.57 c-1.7000000000000002,-4.18 -3.85,-8.73 -2.39,-13 a4.86,4.86 0 0 0 0.5,-2.5 a0.41000000000000003,0.41000000000000003 0 0 0 0,-0.16000000000000003 c-0.3400000000000001,-1.12 -1.6700000000000002,-1.61 -2.36,-2.56 c-1.3,-1.77 0,-4.18 0.8,-6.22 a23.73,23.73 0 0 0 1.34,-6.8100000000000005 c0.11000000000000001,-1.29 0.19000000000000003,-2.59 0.33000000000000007,-3.87 a39,39 0 0 1 0.93,-5.14 a40.57,40.57 0 0 1 16.43,-23.52 c3.89,-2.62 8.22,-4.53 12.19,-7 a111.66,111.66 0 0 0 11.620000000000001,-9 q13.21,-11 27.47,-20.74 a347,347 0 0 1 31.72,-19.26 q3.5,-1.8900000000000001 7,-3.68 q3.81,-2 7.67,-3.79 c8.24,-3.93 17.59,-2.46 26.7,0.16000000000000003 c3.8200000000000003,1.09 7.59,2.39 11.23,3.5700000000000003 a52,52 0 0 1 10.2,4.58 c8.07,4.74 14.74,11.74 17.51,20.58 a1.09,1.09 0 0 1 0,0.17 C888.6999969482422,552.9199983215332 888.8099969482422,558.8599983215332 888.6499969482422,564.6899983215332 z" opacity="0.1" id="svg_38"/><path d="M793.6999969482422,399.0499983215332 a1.8800000000000001,1.8800000000000001 0 1 0 -3.38,1.6400000000000001 l-1,0.49000000000000005 l29.82,61.12 l5.39,-2.63 L794.7099969482422,398.5099983215332 z" fill="#3f3d56" id="svg_39"/><circle cx="830.97998046875" cy="271.0299987792969" r="64" fill="#fbbebe" id="svg_40"/><path d="M915.4499969482422,231.40999832153318 a85,85 0 0 0 -2.26,-15.09 c-3.7600000000000002,-16.17 -10.63,-32.09 -22.46,-43.7 a87.56,87.56 0 0 0 -2.6100000000000003,-8.39 a1.59,1.59 0 0 0 -0.07,-0.2 a93.9,93.9 0 0 0 -15.1,-26.77 c-3.75,-4.66 -8.61,-9.26 -14.59,-9.44 c-1.6800000000000002,-0.06000000000000001 -3.46,0.23 -5,-0.54 a9,9 0 0 1 -2.79,-2.8600000000000003 a26.19,26.19 0 0 0 -25.36,-9.49 l-0.6200000000000001,0.13 c-0.35000000000000003,0.07 -0.7000000000000001,0.15000000000000002 -1,0.24000000000000002 s-0.8400000000000001,0.24000000000000002 -1.26,0.37000000000000005 q0.6900000000000002,1.1400000000000001 1.35,2.31 q1.78,3.17 3.3,6.48 q1.26,2.7600000000000002 2.33,5.61 c-10.24,1.17 -18.58,8.44 -26.2,15.36 L785.1699969482422,161.7099983215332 a0.7600000000000001,0.7600000000000001 0 0 0 -0.09000000000000002,0.09000000000000002 l-0.52,0.5 c-0.13,0.13 -0.26,0.26 -0.38000000000000006,0.4 a0.8600000000000001,0.8600000000000001 0 0 0 -0.13,0.14 c-0.15000000000000002,0.16000000000000003 -0.29000000000000004,0.33000000000000007 -0.43000000000000005,0.5 a7.54,7.54 0 0 0 -0.6700000000000002,1 a3.67,3.67 0 0 0 -0.26,0.47000000000000003 a1,1 0 0 0 -0.07,0.15000000000000002 a3.6900000000000004,3.6900000000000004 0 0 0 -0.17,0.42000000000000004 a0.14,0.14 0 0 0 0,0.06000000000000001 a2.33,2.33 0 0 0 -0.07,0.25 a3,3 0 0 0 0.17,2.12 l11.83,0.13 l1.3900000000000001,0 c0.06000000000000001,1.58 0.11000000000000001,3.17 0.17,4.75 a67.39,67.39 0 0 0 -5.4,4.5 a58.64,58.64 0 0 0 -5.27,5.5600000000000005 c-10.67,12.89 -16.24,29.54 -16.8,46.3 c0,0.52 0,1 0,1.54 c0,1.53 0,3.06 0,4.58 c0,1 0.09000000000000002,2 0.17,3 a7.49,7.49 0 0 0 1,3.71 a3.44,3.44 0 0 0 0.28,0.36000000000000004 a6.9,6.9 0 0 0 2.12,1.56 l0.8600000000000001,0.42000000000000004 h0 c0.43000000000000005,0.21000000000000002 0.8400000000000001,0.41000000000000003 1.24,0.6400000000000001 c3.77,2.13 6,6.24 9.43,8.88 c0.2,0.15000000000000002 0.4,0.30000000000000004 0.6000000000000001,0.43000000000000005 l0.45,0.30000000000000004 l0.28,0.18000000000000002 l0.38000000000000006,0.22000000000000003 a8.14,8.14 0 0 0 0.77,0.41000000000000003 h0 a0,0 0 0 1 0,0 l0.48000000000000004,0.24000000000000002 l0.08000000000000002,0 h0 c0.4,0.18000000000000002 0.8,0.35000000000000003 1.21,0.5 l0.5700000000000001,0.2 l0.17,0.06000000000000001 c0.16000000000000003,0.05000000000000001 0.33000000000000007,0.11000000000000001 0.5,0.15000000000000002 q0.51,0.15000000000000002 1,0.27 l1,0.22000000000000003 c0.39000000000000007,0.07 0.79,0.14 1.19,0.19000000000000003 l0.5900000000000001,0.08000000000000002 l0.6000000000000001,0.06000000000000001 q1.4300000000000002,0.13 2.88,0.15000000000000002 h0 a72,72 0 0 0 9.07,-0.6300000000000001 l25.52,-3 c5.79,-0.6700000000000002 11.7,-1.34 17.41,-0.16000000000000003 c4.84,1 9.3,3.3 14,4.93 c1.06,0.37000000000000005 2.12,0.7100000000000001 3.19,1 c0.39000000000000007,0.11000000000000001 0.79,0.23 1.19,0.33000000000000007 l0.55,0.14 l1.28,0.31000000000000005 c0.46,0.11000000000000001 0.92,0.22000000000000003 1.3800000000000001,0.31000000000000005 c0.6500000000000001,0.14 1.29,0.26 1.94,0.38000000000000006 c0.44000000000000006,0.09000000000000002 0.8900000000000001,0.16000000000000003 1.34,0.24000000000000002 h0.09000000000000002 l1.28,0.2 l0.31000000000000005,0 h0 l0.9500000000000001,0.13 c0.46,0.07 0.92,0.13 1.3900000000000001,0.18000000000000002 q1.53,0.19000000000000003 3.06,0.33000000000000007 c1.6500000000000001,0.16000000000000003 3.31,0.28 5,0.38000000000000006 l1.6600000000000001,0.1 l1.6600000000000001,0.08000000000000002 l5,0.22000000000000003 h0.22000000000000003 l0.7000000000000001,0 a25.8,25.8 0 0 0 6.22,-0.32000000000000006 c0.36000000000000004,-0.07 0.7100000000000001,-0.15000000000000002 1.06,-0.25 s0.6400000000000001,-0.2 1,-0.32000000000000006 c3.75,-1.44 6.49,-4.75 8.39,-8.29 c0.4,-0.7500000000000001 0.77,-1.5 1.11,-2.27 s0.6500000000000001,-1.55 0.93,-2.33 c0.35000000000000003,-1 0.6500000000000001,-1.9500000000000002 0.91,-2.95 c0.08000000000000002,-0.27 0.15000000000000002,-0.54 0.21000000000000002,-0.8200000000000001 s0.2,-0.8300000000000001 0.28,-1.25 c0.25,-1.15 0.44000000000000006,-2.31 0.5800000000000001,-3.48 c0,-0.37000000000000005 0.09000000000000002,-0.7500000000000001 0.13,-1.12 c0.09000000000000002,-1 0.16000000000000003,-1.9300000000000002 0.2,-2.91 c0,-0.7400000000000001 0,-1.49 0,-2.24 C915.5199969482421,233.5099983215332 915.4499969482422,232.4399983215332 915.4499969482422,231.40999832153318 zm-25.64,-59.7 c-0.81,-0.7600000000000001 -1.6400000000000001,-1.49 -2.48,-2.18 A10.33,10.33 0 0 1 889.7999969482422,171.7099983215332 z" fill="#464353" id="svg_41"/><path d="M708.1499969482422,267.5099983215332 c-7.53,-0.93 -15,-4.23 -22.43,-2.6100000000000003 c-4.65,1 -8.65,3.89 -12.37,6.86 A150.41,150.41 0 0 0 638.5799969482422,311.5099983215332 a21,21 0 0 0 -3.21,7.52 c-0.48000000000000004,3.12 0.37000000000000005,6.29 1.3800000000000001,9.28 c6.84,20.21 21.47,37.09 28.13,57.36 c7,21.32 4.57,44.62 -0.5900000000000001,66.46 A277.75,277.75 0 0 1 633.4499969482422,528.8299983215333 a43.74,43.74 0 0 1 -7.1,9.72 c-3.64,3.5 -8.53,6 -10.69,10.58 c-1,2 -1.29,4.28 -2,6.42 c-2,6 -6.84,11.14 -7.3100000000000005,17.47 c-0.35000000000000003,4.83 1.94,9.4 3.33,14 a38.58,38.58 0 0 1 -0.7100000000000001,24.1 c-5.07,13.9 -18.33,26.54 -14.48,40.83 c8.59,-2.47 18.11,-5.68 22.16,-13.65 c1.4300000000000002,-2.8200000000000003 2.14,-6.18 4.55,-8.24 c4.8100000000000005,-4.09 13,-0.39000000000000007 18.11,-4.15 c3.8600000000000003,-2.8600000000000003 4,-8.72 2.2800000000000002,-13.22 s-4.68,-8.46 -6,-13.09 c-2.3,-8.35 1.3800000000000001,-17.18 0.7000000000000001,-25.81 c-0.32000000000000006,-4 -1.55,-7.83 -1.6400000000000001,-11.81 c-0.17,-7.73 4.11,-15 9.8,-20.25 s12.72,-8.73 19.64,-12.16 l26.16,-13 c9.49,-4.7 19.89,-10.43 23,-20.55 c1.18,-3.79 1.19,-7.83 1.25,-11.79 c0.8900000000000001,-60.51 16.05,-119.8 31.12,-178.41 c2.34,-9.08 4.72,-18.2 8.2,-26.92 s10.29,-15.72 13.76,-23.82 C747.4499969482422,252.71999832153318 729.0599969482422,270.1299983215332 708.1499969482422,267.5099983215332 z" fill="#464353" id="svg_42"/><path d="M852.3599969482422,647.1199983215332 c2.31,14 3.72,28.3 4.82,42.53 c-18,14.92 -37.38,27.9 -57.07,39.94 c-1.12,0.6900000000000002 -2.25,1.37 -3.38,2 l-0.09000000000000002,0.48000000000000004 a2.49,2.49 0 0 0 -0.16000000000000003,-0.33000000000000007 a15.05,15.05 0 0 0 -7.52,-7.42 q-11.07,-23.25 -22.12,-46.5 c-4,-8.37 -8,-16.82 -10,-25.85 c0,-0.19000000000000003 -0.09000000000000002,-0.39000000000000007 -0.12000000000000001,-0.5800000000000001 c-1.52,-7 -1.87,-14.27 -2.88,-21.36 a61.7,61.7 0 0 0 -2.73,-11.94 c-1.2,-3.45 -2.85,-6.8 -4.3100000000000005,-10.17 c-1.8,-4.16 -3.31,-8.37 -3.38,-12.86 c0,-1.4300000000000002 0.09000000000000002,-3 -0.6100000000000001,-4.2 a10.89,10.89 0 0 0 -2.73,-2.64 a10.41,10.41 0 0 1 -3.36,-9.51 c-6,0.31000000000000005 -9.38,6.76 -11.79,12.23 a66.68,66.68 0 0 1 -8.56,15 a28.45,28.45 0 0 1 -9.48,7.890000000000001 c-0.33000000000000007,0.16000000000000003 -0.6600000000000001,0.32000000000000006 -1,0.46 c-8.35,3.68 -18.1,2.38 -27.15,0.7200000000000001 c-7.91,-1.45 -16.09,-3.25 -22.45,-8.17 l-0.6800000000000002,-0.54 a29.37,29.37 0 0 1 -5,-5.34 c-5.33,-7.28 -7.69,-16.87 -9,-26 c-0.12000000000000001,-0.8600000000000001 -0.24000000000000002,-1.7200000000000002 -0.35000000000000003,-2.58 a96.17,96.17 0 0 1 -0.7500000000000001,-19.48 c0.12000000000000001,-1.6 0.29000000000000004,-3.2 0.5,-4.79 c0.14,-1 0.29000000000000004,-2.08 0.46,-3.12 a0.28,0.28 0 0 1 0,-0.09000000000000002 c0.26,-1.6500000000000001 0.54,-3.31 0.8200000000000001,-5 c1,-5.67 2,-11.49 5,-16.37 a31,31 0 0 1 7.36,-7.88 c1.08,-0.8500000000000001 2.19,-1.6600000000000001 3.31,-2.44 c1.82,-1.26 3.6900000000000004,-2.46 5.59,-3.59 a96.62,96.62 0 0 1 15,-7.3 c1.24,-0.48000000000000004 2.5,-0.93 3.7600000000000002,-1.36 a29.51,29.51 0 0 1 15.28,-1.21 a80.41,80.41 0 0 0 13.68,0.8 c11.73,-0.23 23.51,-2.47 35.22,-3.92 c16.26,-2 33.73,-2.24 47.91,6 c0.6800000000000002,0.39000000000000007 1.34,0.8 2,1.23 c7,4.58 12.64,11 17.19,18.17 c1,1.51 1.87,3.06 2.73,4.63 a117.93,117.93 0 0 1 5.37,11.1 a13.8,13.8 0 0 1 1.49,6 a7.79,7.79 0 0 1 -0.16000000000000003,1.18 c-0.27,1.42 -0.81,2.8 -1,4.24 c-0.6300000000000001,5.45 4,10 5.73,15.19 c1.12,3.38 1,7 1.6300000000000001,10.56 c0.91,5 3.36,9.5 5.5600000000000005,14 a175.06,175.06 0 0 1 8.9,22.37 c1.7400000000000002,5.33 3.23,10.74 4.54,16.2 q0.6400000000000001,2.63 1.21,5.27 C850.6799969482422,637.6099983215332 851.5699969482422,642.3499983215332 852.3599969482422,647.1199983215332 z" fill="#f86d70" id="svg_43"/><polygon points="958.98 499.03 958.98 506.03 957.69 506.01 956.25 505.99 940.17 505.79 900.55 505.27 889.43 505.13 886.55 505.09 869.86 504.88 846.34 504.57 796.44 503.92 709.85 502.8 678.6 502.4 666.06 502.24 654.52 502.09 647.33 501.99 640.52 501.9 590.03 501.25 576.03 501.07 572.98 501.03 571 495.92 556.61 458.81 553.98 452.03 555.98 444.03 564.98 450.03 570.52 450.72 661.73 462.06 678.85 464.19 715.15 468.71 750.71 473.13 764.65 474.86 847.14 485.12 870.19 487.99 889.27 490.36 957.11 498.8 958.98 499.03" fill="#3f3d56" id="svg_44"/><polygon points="555.98 444.03 573.98 491.03 958.98 499.03 958.98 448.03 555.98 444.03" fill="#504f60" id="svg_45"/><polygon points="575.98 496.03 578.98 783.03 592.98 781.03 589.98 496.03 575.98 496.03" fill="#3f3d56" id="svg_46"/><path d="M957.6899969482422,505.9999983215332 l-1.44,0 a316.48,316.48 0 0 1 -11.53,52.79 l-4.55,-53 l-0.19000000000000003,-2.26 l16.82,-1.94 l0.56,-0.06000000000000001 z" fill="#3f3d56" id="svg_47"/><polygon points="902.98 472.03 756.48 475.03 710.98 460.03 832.98 453.03 902.98 472.03" fill="#fff" id="svg_48"/><path d="M719.2099969482422,413.7099983215332 a9.82,9.82 0 0 0 -4,2.85 a10.56,10.56 0 0 0 -1.49,4.54 l-2.46,14.67 a6.49,6.49 0 0 0 0.19000000000000003,4.07 c0.6400000000000001,1.23 2.5,1.87 3.43,0.8500000000000001 c-0.12000000000000001,2.87 0.13,5.93 1.8,8.27 s5.17,3.5700000000000003 7.53,1.94 a4.88,4.88 0 0 0 7.35,1.1400000000000001 c-1.42,0.48000000000000004 -1.52,2.6500000000000004 -0.51,3.75 a6.53,6.53 0 0 0 4.08,1.6300000000000001 a99.79,99.79 0 0 0 51.9,-6.53 c1.55,-0.6400000000000001 -2.5300000000000002,-19.75 -2.94,-21.71 c-1,-4.61 -1.5,-10.24 -5.39,-13.34 c-9.3,-7.42 -25.82,-8.88 -37.15,-8 A64,64 0 0 0 719.2099969482422,413.7099983215332 z" fill="#fbbebe" id="svg_49"/><path d="M868.2699969482422,415.9299983215332 c-36.17,0.6900000000000002 -73.09,1.28 -107.61,-9.55 a73,73 0 0 1 -0.6600000000000001,38.87 l169.12,14 c7.17,0.5900000000000001 36.9,3.95 43.89,2.26 s-58.65,-23.31 -56,-30 c7.29,-18.43 31.71,-29.23 14.12,-29.92 C908.9299969482422,400.7099983215332 890.6399969482422,415.5099983215332 868.2699969482422,415.9299983215332 z" opacity="0.1" id="svg_50"/><path d="M869.2699969482422,417.9299983215332 c-36.17,0.6900000000000002 -73.09,1.28 -107.61,-9.55 a73,73 0 0 1 -0.6600000000000001,38.87 l169.12,14 c7.17,0.5900000000000001 36.9,4 43.89,2.26 s5.35,-10.31 8,-17 c7.29,-18.43 -32.29,-42.23 -49.88,-42.92 C909.9299969482422,402.7099983215332 891.6399969482422,417.5099983215332 869.2699969482422,417.9299983215332 z" fill="#464353" id="svg_51"/><path d="M811.7599969482421,420.7099983215332 a9.79,9.79 0 0 1 4,2.85 a10.71,10.71 0 0 1 1.5,4.54 l2.46,14.67 a6.5600000000000005,6.5600000000000005 0 0 1 -0.19000000000000003,4.07 c-0.6400000000000001,1.23 -2.51,1.87 -3.43,0.8500000000000001 c0.11000000000000001,2.87 -0.13,5.93 -1.8,8.27 s-5.17,3.5700000000000003 -7.54,1.94 a4.88,4.88 0 0 1 -7.35,1.1400000000000001 c1.42,0.48000000000000004 1.53,2.6500000000000004 0.52,3.75 a6.5600000000000005,6.5600000000000005 0 0 1 -4.09,1.6300000000000001 a99.75,99.75 0 0 1 -51.89,-6.53 c-1.55,-0.6400000000000001 2.52,-19.75 2.94,-21.71 c1,-4.61 1.5,-10.24 5.39,-13.34 c9.29,-7.42 25.82,-8.88 37.15,-8 A64,64 0 0 1 811.7599969482421,420.7099983215332 z" fill="#fbbebe" id="svg_52"/><path d="M572.7599969482421,388.8599983215332 c-3.3200000000000003,4.28 -6.65,8.65 -8.79,13.64 c-4.09,9.52 -3.49,20.3 -2.81,30.64 c0.19000000000000003,3 0.43000000000000005,6.06 2,8.55 a14.44,14.44 0 0 0 5.22,4.45 c8.66,4.92 18.8,6.39 28.7,7.49 q22.74,2.52 45.64,3.07 c37.82,0.92 76.22,-2.17 113.06,6.4 c-4.5600000000000005,-6.93 -4.55,-16.1 -2,-24 s7.46,-14.78 12.27,-21.55 c-16.86,-5.34 -34.94,3 -52.6,2.17 c-18.13,-0.8500000000000001 -34.91,-11.33 -53.06,-11.32 c-3.9,0 -7.87,0.49000000000000005 -11.66,-0.45 s-7.46,-3.8 -7.8100000000000005,-7.69 c4.84,1.09 9.43,-3.05 11.43,-7.59 s2.36,-9.67 4.3,-14.24 c4.83,-11.37 17.88,-16.64 26,-26 c1.28,-1.48 2.49,-3.23 2.45,-5.19 a8.12,8.12 0 0 0 -2,-4.47 c-6.75,-9 -16.92,-14 -25.37,-21 c-2.94,-2.44 -8.870000000000001,-11.64 -12.17,-12.49 c-6.12,-1.57 -11.31,7.27 -15.29,11.58 Q600.1299969482421,353.6099983215332 572.7599969482421,388.8599983215332 z" fill="#464353" id="svg_53"/><path d="M773.8399969482422,386.3199983215332 a33.1,33.1 0 0 1 6.69,6.63 a11.42,11.42 0 0 1 2.09,8.94 a13.36,13.36 0 0 1 8.33,-13.83 z" opacity="0.07" id="svg_54"/><g opacity="0.1" id="svg_55"><path d="M829.2999969482422,124.0799983215332 a86.87,86.87 0 0 0 -4.06,-9.15 a24.52,24.52 0 0 0 -2.92,0.7500000000000001 A84.57,84.57 0 0 1 826.9499969482422,124.5099983215332 C827.7199969482422,124.30999832153321 828.4999969482421,124.1699983215332 829.2999969482422,124.0799983215332 z" id="svg_56"/><path d="M887.3199969482422,163.5099983215332 c0.27,0.22000000000000003 0.53,0.47000000000000003 0.79,0.7000000000000001 a1.46,1.46 0 0 0 -0.07,-0.19000000000000003 Q887.6999969482422,163.7699983215332 887.3199969482422,163.5099983215332 z" id="svg_57"/><path d="M794.3599969482422,167.9099983215332 c0.52,-0.41000000000000003 1,-0.8400000000000001 1.56,-1.24 l-0.16000000000000003,-4.75 l-10.68,-0.11000000000000001 c-1.73,1.59 -3.5700000000000003,3.87 -2.55,6 z" id="svg_58"/><path d="M911.1199969482421,247.86999832153322 c-1.9,3.54 -4.640000000000001,6.86 -8.39,8.29 c-2.89,1.1 -6.07,1 -9.16,0.8600000000000001 c-10.54,-0.43000000000000005 -21.26,-0.9 -31.22,-4.39 c-4.66,-1.6400000000000001 -9.12,-3.93 -14,-4.94 c-5.71,-1.18 -11.620000000000001,-0.51 -17.41,0.17 l-25.52,3 c-7.53,0.8800000000000001 -15.92,1.54 -21.93,-3.08 c-3.44,-2.64 -5.66,-6.75 -9.43,-8.870000000000001 c-1.59,-0.9 -3.48,-1.48 -4.51,-3 a7.49,7.49 0 0 1 -1,-3.71 c-0.08000000000000002,-1.05 -0.13,-2.1 -0.17,-3.15 a84.63,84.63 0 0 0 0.17,9.15 a7.49,7.49 0 0 0 1,3.71 c1,1.51 2.92,2.09 4.51,3 c3.77,2.12 6,6.23 9.43,8.870000000000001 c6,4.62 14.4,4 21.93,3.08 l25.52,-3 c5.79,-0.6800000000000002 11.7,-1.35 17.41,-0.17 c4.84,1 9.3,3.3 14,4.94 c10,3.49 20.68,4 31.22,4.39 c3.09,0.13 6.27,0.24000000000000002 9.16,-0.8600000000000001 c3.75,-1.4300000000000002 6.49,-4.75 8.39,-8.29 c3.68,-6.85 4.71,-14.620000000000001 4.32,-22.45 A39.06,39.06 0 0 1 911.1199969482421,247.86999832153322 z" id="svg_59"/></g><path d="M829.0099969482421,130.5099983215332 l14,13 S831.0099969482421,138.5099983215332 829.0099969482421,130.5099983215332 z" opacity="0.1" id="svg_60"/></g></svg>