<svg xmlns="http://www.w3.org/2000/svg" xmlns:xlink="http://www.w3.org/1999/xlink" data-name="Layer 1" width="907.030029296875" height="730" style=""><rect id="backgroundrect" width="100%" height="100%" x="0" y="0" fill="none" stroke="none"/><defs><linearGradient id="266ddccd-2bf2-4e28-b2e5-5ae966d4800f" x1="0.4999886155128479" y1="1.0000401735305786" x2="0.4999886155128479" y2="0"><stop offset="0" stop-color="gray" stop-opacity="0.25"/><stop offset="0.54" stop-color="gray" stop-opacity="0.12"/><stop offset="1" stop-color="gray" stop-opacity="0.1"/></linearGradient><linearGradient id="626d076d-6f89-411f-83f5-9b8674077322" x1="33.880001068115234" y1="206.9600067138672" x2="182.22999572753906" y2="206.9600067138672" xlink:href="#266ddccd-2bf2-4e28-b2e5-5ae966d4800f"/><linearGradient id="e2ac2573-f441-4fda-b2ca-fa87ebeba1c3" x1="749.0399780273438" y1="221.8300018310547" x2="749.0399780273438" y2="112.63999938964844" xlink:href="#266ddccd-2bf2-4e28-b2e5-5ae966d4800f"/><linearGradient id="bb3d1d29-a72a-47e9-9ad6-cff955e05eb4" x1="628.3599853515625" y1="671.9500122070312" x2="628.3599853515625" y2="527.9299926757812" xlink:href="#266ddccd-2bf2-4e28-b2e5-5ae966d4800f"/><linearGradient id="69187472-cad7-4cbf-a29f-e953f1d019d9" x1="499.8299865722656" y1="650.239990234375" x2="499.8299865722656" y2="549.6400146484375" xlink:href="#266ddccd-2bf2-4e28-b2e5-5ae966d4800f"/></defs><title>setup</title><g class="currentLayer" style=""><title>Layer 1</title><circle cx="423.721435546875" cy="364.4285583496094" r="363" fill="none" stroke="#009809" stroke-miterlimit="10" stroke-width="4" stroke-dasharray="12.07 15.09" id="svg_1" class="selected" stroke-opacity="1"/><rect x="76.23999786376953" y="109.88999938964844" width="381.9800109863281" height="242.97000122070312" fill="#0bd50b" opacity="0.2" id="svg_2" class="" fill-opacity="1"/><rect y="74.95999908447266" width="438.04998779296875" height="248.80999755859375" fill="url(#266ddccd-2bf2-4e28-b2e5-5ae966d4800f)" id="svg_3"/><rect x="4.670000076293945" y="111.18000030517578" width="427.5400085449219" height="206.75999450683594" fill="#fff" id="svg_4"/><rect x="33.880001068115234" y="128.6999969482422" width="148.35000610351562" height="156.52999877929688" fill="url(#626d076d-6f89-411f-83f5-9b8674077322)" id="svg_5"/><rect x="38.54999923706055" y="131.62856835126877" width="140.17999267578125" height="149.52000427246094" fill="#919191" id="svg_6" class="" fill-opacity="1"/><path d="M147.79000427246092,191.24 c-1.1,-8.88 -2.6100000000000003,-17.81 -6,-26.09 s-8.86,-15.94 -16.46,-20.66 a18.81,18.81 0 0 0 -9.1,-3.15 c-6,-0.21000000000000002 -11.45,3.8 -14.52,8.91 a41.57,41.57 0 0 0 -2.71,5.51 a12.83,12.83 0 0 0 -10.65,11.75 a32.72,32.72 0 0 0 4.63,61.78 v5.58 a32.84,32.84 0 0 0 -24.53,31.67 v15.19 h65.42 V266.54 a32.84,32.84 0 0 0 -24.53,-31.67 v-5.58 a32.72,32.72 0 0 0 24.53,-31.68 c0,-0.08000000000000002 0,-0.15000000000000002 0,-0.23 l3.68,8.19 c3.5,7.8 7.09,16.18 5.73,24.62 C149.98000427246092,218.70999999999998 149.42000427246091,204.45999999999998 147.79000427246092,191.24 z" fill="#fff" id="svg_7"/><rect x="4.670000076293945" y="79.06857299804688" width="427.5400085449219" height="31.540000915527344" fill="#009809" id="svg_8" class="" fill-opacity="1"/><rect x="235.9600067138672" y="176.00999450683594" width="162.3699951171875" height="10.510000228881836" fill="#e0e0e0" id="svg_9"/><rect x="235.9600067138672" y="220.39999389648438" width="162.3699951171875" height="10.510000228881836" fill="#f5f5f5" id="svg_10"/><rect x="234.7899932861328" y="198.1999969482422" width="95.79000091552734" height="10.510000228881836" fill="#6c63ff" opacity="0.2" id="svg_11"/><rect x="234.7899932861328" y="242.58999633789062" width="65.41999816894531" height="10.510000228881836" fill="#69f0ae" opacity="0.2" id="svg_12"/><rect x="311.8900146484375" y="242.58999633789062" width="65.41999816894531" height="10.510000228881836" fill="#69f0ae" id="svg_13"/><rect x="667.3599853515625" y="136.6699981689453" width="215.5500030517578" height="100.5199966430664" fill="#ff6e40" opacity="0.2" id="svg_14"/><rect x="633.469970703125" y="112.63999938964844" width="231.13999938964844" height="109.19000244140625" fill="url(#e2ac2573-f441-4fda-b2ca-fa87ebeba1c3)" id="svg_15"/><rect x="641.969970703125" y="115.23999786376953" width="215.5500030517578" height="100.5199966430664" fill="#fff" id="svg_16"/><rect x="674.6300048828125" y="137.22000122070312" width="125.73999786376953" height="11.930000305175781" fill="#ff6e40" opacity="0.3" id="svg_17"/><rect x="674.6300048828125" y="164.52000427246094" width="65.20999908447266" height="11.930000305175781" fill="#ff6e40" id="svg_18"/><rect x="404.20001220703125" y="557.4400024414062" width="502.8299865722656" height="135.25" fill="#b6b6b6" opacity="0.2" id="svg_19" class="" fill-opacity="1"/><rect x="373.2900085449219" y="527.9299926757812" width="510.1499938964844" height="144.00999450683594" fill="url(#bb3d1d29-a72a-47e9-9ad6-cff955e05eb4)" id="svg_20"/><rect x="376.95001220703125" y="532.8099975585938" width="502.8299865722656" height="134.25" fill="#fff" id="svg_21"/><circle cx="499.8299865722656" cy="599.9400024414062" r="50.29999923706055" fill="url(#69187472-cad7-4cbf-a29f-e953f1d019d9)" id="svg_22"/><circle cx="499.8299865722656" cy="599.9400024414062" r="44.709999084472656" fill="#04b804" id="svg_23" class="" fill-opacity="1"/><g opacity="0.2" id="svg_24" class="" fill="#b6b6b6" fill-opacity="1"><rect x="587.8499755859375" y="566.4099731445312" width="79.63999938964844" height="13.970000267028809" fill="#b6b6b6" id="svg_25" fill-opacity="1"/><rect x="587.8499755859375" y="592.9500122070312" width="219.35000610351562" height="13.970000267028809" fill="#b6b6b6" id="svg_26" fill-opacity="1"/><rect x="587.8499755859375" y="619.5" width="219.35000610351562" height="13.970000267028809" fill="#b6b6b6" id="svg_27" fill-opacity="1"/></g><polygon points="529.17 582.01 519.35 574.52 493.47 608.43 479.03 597.41 471.54 607.22 490.9 622 490.95 621.93 495.85 625.67 529.17 582.01" fill="#fff" id="svg_28"/></g></svg>