<svg xmlns="http://www.w3.org/2000/svg" xmlns:xlink="http://www.w3.org/1999/xlink" data-name="Layer 1" width="1038.8199462890625" height="812.780029296875"><rect id="backgroundrect" width="100%" height="100%" x="0" y="0" fill="none" stroke="none"/><defs><linearGradient id="d0fcbace-0635-4911-8b0c-c4f3fdb0b5b3" x1="0.49989718198776245" y1="1.0000370740890503" x2="0.49989718198776245" y2="0.00007398613524856046"><stop offset="0" stop-color="gray" stop-opacity="0.25"/><stop offset="0.54" stop-color="gray" stop-opacity="0.12"/><stop offset="1" stop-color="gray" stop-opacity="0.1"/></linearGradient></defs><title>mobile payments</title><g class="currentLayer" style=""><title>Layer 1</title><path d="M659.0600036621094,106.93333276271821 C603.8300036621093,105.02333276271821 551.2200036621093,87.18333276271821 500.9800036621094,67.7233327627182 s-100,-41.12 -153.91,-51.46 c-34.68,-6.65 -74.33,-7.59 -102.28,11 c-26.88,17.89 -35.57,48.78 -40.24,77.43 c-3.52,21.56 -5.58,44.26 4.05,64.44 c6.68,14 18.55,25.79 26.76,39.21 c28.56,46.71 8.37,104.3 -22.58,149.9 C198.2600036621094,379.5833327627182 181.41000366210938,399.9933327627182 170.22000366210938,422.7233327627182 s-16.39,48.87 -6.59,72.09 c9.72,23 32.87,40.32 58,52.49 c50.95,24.7 111,31.77 169.51,35.78 c129.58,8.86 259.85,5 389.78,1.18 c48.08,-1.42 96.37,-2.8600000000000003 143.67,-10.3 c26.27,-4.13 53.39,-10.68 72.46,-26.5 c24.21,-20.08 30.21,-54.09 14,-79.27 c-27.21,-42.24 -102.45,-52.73 -121.46,-98.06 c-10.47,-24.95 0.28,-52.75 15.49,-75.89 c32.64,-49.64 87.34,-93.19 90.22,-149.93 c2,-39 -24.32,-78 -65,-96.44 c-42.62,-19.33 -101.71,-16.9 -133.16,15.1 C764.7300036621094,95.95333276271819 707.8300036621093,108.6333327627182 659.0600036621094,106.93333276271821 z" fill="#009809" opacity="0.1" id="svg_1" class="" fill-opacity="1"/><path d="M503.1500036621094,749.7499993896485 s-46,-81.51 -115.32,-105 c-29.09,-9.86 -54.48,-28.4 -71.84,-53.74 a238.81,238.81 0 0 1 -21.2,-38.12 " fill="none" stroke="#535461" stroke-miterlimit="10" stroke-width="2" id="svg_2"/><path d="M251.2100036621094,537.8099993896484 c7.890000000000001,7.66 44.67,15.59 44.67,15.59 s-9,-36.52 -16.92,-44.19 a19.93,19.93 0 0 0 -27.75,28.6 z" fill="#6ec973" id="svg_3" class="" fill-opacity="1" opacity="1"/><path d="M272.0100036621094,603.8999993896484 c10.8,2.14 46,-11.19 46,-11.19 s-27.43,-25.76 -38.22,-27.9 a19.93,19.93 0 1 0 -7.76,39.09 z" fill="#6ec973" id="svg_4" class="" fill-opacity="1" opacity="1"/><path d="M347.7700036621094,675.3899993896484 c10.4,-3.6 34,-32.87 34,-32.87 s-36.67,-8.39 -47.07,-4.79 a19.93,19.93 0 0 0 13,37.66 z" fill="#6ec973" id="svg_5" class="" fill-opacity="1" opacity="1"/><path d="M417.2700036621094,716.6199993896485 c10.86,-1.79 39.1,-26.64 39.1,-26.64 s-34.73,-14.47 -45.59,-12.68 a19.93,19.93 0 0 0 6.49,39.32 z" fill="#6ec973" id="svg_6" class="" fill-opacity="1" opacity="1"/><path d="M348.6600036621094,564.1699993896484 c0,11 -19.91,42.93 -19.91,42.93 S308.81000366210935,575.1899993896484 308.80000366210936,564.1899993896484 a19.93,19.93 0 0 1 39.86,0 z" fill="#6ec973" id="svg_7" class="" fill-opacity="1" opacity="1"/><path d="M429.3300036621094,613.3899993896484 c-3.29,10.5 -31.84,35 -31.84,35 s-9.48,-36.41 -6.19,-46.91 a19.93,19.93 0 1 1 38,11.91 z" fill="#6ec973" id="svg_8" class="" fill-opacity="1" opacity="1"/><path d="M501.17000366210937,671.9899993896485 c-1.46,10.9 -25.46,39.88 -25.46,39.88 s-15.5,-34.28 -14,-45.19 a19.92,19.92 0 1 1 39.49,5.3100000000000005 z" fill="#6c63ff" id="svg_9"/><path d="M501.17000366210937,671.9899993896485 c-1.46,10.9 -25.46,39.88 -25.46,39.88 s-15.5,-34.28 -14,-45.19 a19.92,19.92 0 1 1 39.49,5.3100000000000005 z" opacity="0.25" id="svg_16"/><path d="M500.5000036621094,748.1299993896484 s-9,-93.17 -62.87,-142.73 c-22.6,-20.8 -38.3,-48 -43.9,-78.24 a238.09,238.09 0 0 1 -3.93,-43.45 " fill="none" stroke="#535461" stroke-miterlimit="10" stroke-width="2" id="svg_17"/><path d="M354.7266702890396,448.27999927043913 c4.11,10.21 34.52,32.36 34.52,32.36 s6.55,-37.05 2.44,-47.26 a19.93,19.93 0 0 0 -37,14.9 z" fill="#009809" id="svg_18" class="" fill-opacity="1"/><path d="M346.9566702890396,517.1299992704392 c9,6.33 46.57,8.4 46.57,8.4 s-14.63,-34.66 -23.63,-41 a19.93,19.93 0 1 0 -22.94,32.59 z" fill="#009809" id="svg_19" class="" fill-opacity="1"/><path d="M387.23667028903964,614.543332643509 c11,0.92 44.44,-16.26 44.44,-16.26 S401.54667028903964,575.7233326435089 390.5766702890396,574.8333326435089 a19.93,19.93 0 1 0 -3.34,39.71 z" fill="#009809" id="svg_20" class="" fill-opacity="1"/><path d="M435.4100036621094,681.7166660165786 c10.66,2.7600000000000002 46.55,-8.52 46.55,-8.52 s-25.89,-27.3 -36.54,-30.06 a19.93,19.93 0 0 0 -10,38.58 z" fill="#6ec973" id="svg_21" class="" fill-opacity="1"/><path d="M433.13667028903956,513.1933326435089 c-4.46,10.07 -35.6,31.18 -35.6,31.18 s-5.3,-37.25 -0.8500000000000003,-47.31 a19.93,19.93 0 0 1 36.45,16.13 z" fill="#009809" id="svg_22" class="" fill-opacity="1"/><path d="M488.2700036621094,592.2166660165786 c-7.26,8.27 -43.29,19.1 -43.29,19.1 s6.09,-37.13 13.35,-45.39 a19.92,19.92 0 1 1 29.94,26.29 z" fill="#009809" id="svg_23" class="" fill-opacity="1"/><path d="M530.2100036621093,676.2399993896485 C524.4100036621094,685.6199993896485 490.7700036621094,702.3899993896484 490.7700036621094,702.3899993896484 s-0.28,-37.62 5.48,-47 a19.93,19.93 0 0 1 34,20.86 z" fill="#009809" id="svg_24" class="" fill-opacity="1"/><ellipse cx="599.5266723632812" cy="793.4500122070312" rx="268.80999755859375" ry="19.329999923706055" fill="#009809" opacity="0.1" id="svg_25" class="" fill-opacity="1"/><path d="M978.1100036621094,253.84999938964842 c0.78,-2.13 -5.07,-13.95 -5.07,-14.53 s-6.05,-7.17 -6.05,-10.85 s-8,-11.620000000000001 -8,-11.620000000000001 s-10.73,-4.46 -11.9,-14.15 s-12.85,-9.88 -12.88,-9.88 h0 s0.05000000000000001,-0.8900000000000001 0.07,-2.22 c0,-3 -0.09000000000000002,-8.4 -1.44,-11.34 c-2,-4.26 -6.640000000000001,-5.62 -6.640000000000001,-5.62 s-1.17,-7.5600000000000005 -3.51,-9.89 a11.1,11.1 0 0 1 -2.73,-10.46 c1.17,-3.67 -1.56,-13 -7.22,-14.33 s-12.1,-3.49 -12.1,-3.49 s-0.6300000000000001,0.12000000000000001 -1.56,0.25 l-0.78,-0.25 a34.3,34.3 0 0 1 -4.1,0.51 a5.14,5.14 0 0 1 -3.31,-1.09 c-2,-2.13 -17.75,-6.2 -20.68,-6.2 s-11.32,-3.88 -11.32,-3.88 s-5.85,-4.45 -8.38,-6.39 c-2.36,-1.79 -6.71,-9.06 -7.34,-10.13 l-0.08000000000000002,-0.14 h0 l-0.05000000000000001,0 a35.93,35.93 0 0 1 -1.53,-4.23 c-0.09000000000000002,-0.30000000000000004 -0.16000000000000003,-0.6000000000000001 -0.24000000000000002,-0.9 a46.64,46.64 0 0 0 7.26,-10 c0.2,-0.38000000000000006 0.38000000000000006,-0.77 0.5700000000000001,-1.15 a4.21,4.21 0 0 0 1.27,-0.2 a5.38,5.38 0 0 0 0.51,-0.2 a8.5,8.5 0 0 0 4.14,-4.95 h0 c0.14,-0.42000000000000004 0.26,-0.8500000000000001 0.37000000000000005,-1.28 l0.09000000000000002,-0.43000000000000005 c0.07,-0.29000000000000004 0.13,-0.5900000000000001 0.19000000000000003,-0.8900000000000001 s0.05000000000000001,-0.33000000000000007 0.08000000000000002,-0.5 s0.09000000000000002,-0.5800000000000001 0.13,-0.8700000000000001 s0,-0.33000000000000007 0.07,-0.49000000000000005 c0.05000000000000001,-0.37000000000000005 0.09000000000000002,-0.7300000000000001 0.14,-1.1 h0 c0.16000000000000003,-1.37 0.32000000000000006,-2.74 0.6100000000000001,-4.08 a0.14,0.14 0 0 1 0,-0.06000000000000001 h0 c1.1600000000000001,-5.26 4.33,-9.7 6.57,-14.56 h0 c0.32000000000000006,-0.7000000000000001 0.6200000000000001,-1.4100000000000001 0.9,-2.12 s0.54,-1.56 0.77,-2.36 c0.07,-0.24000000000000002 0.12000000000000001,-0.48000000000000004 0.19000000000000003,-0.7200000000000001 q0.22000000000000003,-0.8800000000000001 0.39000000000000007,-1.77 c0.05000000000000001,-0.25 0.1,-0.5 0.14,-0.7600000000000001 c0.14,-0.8 0.25,-1.61 0.31000000000000005,-2.42 a29.86,29.86 0 0 0 -2,-13.61 c-1.46,-3.64 -3.64,-6.92 -5.12,-10.55 c-2.24,-5.52 -2.83,-11.76 -5.57,-17 c-4.59,-8.81 -15.41,-13.22 -24.3,-9.91 c-4.24,1.58 -7.92,4.65 -12.23,6 c-5.76,1.84 -11.93,0.46 -17.9,-0.37000000000000005 s-12.56,-0.9 -17.36,3 c-5.53,4.49 -7,12.93 -12.22,17.85 c-2.18,2.07 -4.890000000000001,3.39 -7.19,5.3 a11.79,11.79 0 0 0 -3.6100000000000003,4.93 c0,0.14 -0.09000000000000002,0.28 -0.13,0.42000000000000004 s-0.09000000000000002,0.33000000000000007 -0.13,0.5 s-0.07,0.39000000000000007 -0.1,0.5800000000000001 s0,0.27 0,0.4 a6,6 0 0 0 0,1 h0 a8.33,8.33 0 0 0 0.16000000000000003,1 a2,2 0 0 0 0.07,0.26 a7.71,7.71 0 0 0 0.24000000000000002,0.8200000000000001 s0,0.1 0,0.15000000000000002 c0.11000000000000001,0.30000000000000004 0.23,0.5900000000000001 0.35000000000000003,0.8900000000000001 l0.19000000000000003,0.43000000000000005 c0,0.12000000000000001 0.11000000000000001,0.24000000000000002 0.16000000000000003,0.37000000000000005 a23,23 0 0 1 1.81,4.5 a5,5 0 0 1 -0.18000000000000002,3 a9,9 0 0 1 -2.16,2.84 a40.32,40.32 0 0 0 -8.81,14.1 c-0.22000000000000003,0.6000000000000001 -0.43000000000000005,1.2 -0.6300000000000001,1.81 c0,0 0,0 0,0.05000000000000001 l0.26,0.07 a13.06,13.06 0 0 0 1.71,0.37000000000000005 c0.33000000000000007,0 0.6600000000000001,0.08000000000000002 1,0.1 a15.2,15.2 0 0 0 4,-0.30000000000000004 c0.3400000000000001,-0.07 0.6700000000000002,-0.15000000000000002 1,-0.24000000000000002 a23.88,23.88 0 0 0 3.95,-1.45 c0,0.4 0,0.79 0,1.19 c0,0.22000000000000003 0,0.44000000000000006 0,0.6600000000000001 a46.06,46.06 0 0 0 25.6,41.21 c0.06000000000000001,0.43000000000000005 0.11000000000000001,0.8400000000000001 0.17,1.26 s0.09000000000000002,0.7100000000000001 0.13,1.06 l-0.53,-0.51 s-3.51,-1.7400000000000002 -6.83,3.3 s-9.56,7.36 -9.56,7.36 s-35.51,5.62 -36.87,10.27 l-16.59,1 s-5.85,0.77 -6.43,13 s-3.71,13.37 -3.71,13.37 s-6.83,12 -6.24,18.21 s-5.27,9.3 -5.27,9.3 l-0.78,11 s-6.44,-1 -8.2,6.59 s-4.87,11 -4.87,11 s-10.74,8.92 -11.32,16.47 l-6.63,4.07 s-15.42,-3.49 -18.93,-9.69 l-1.08,-1 a0.7500000000000001,0.7500000000000001 0 0 1 -0.09000000000000002,-0.15000000000000002 a0.32000000000000006,0.32000000000000006 0 0 0 0,0.07 c-2.3,-2.17 -7.2,-6.73 -6.45,-5.68 a4.82,4.82 0 0 1 0.32000000000000006,3.12 l-1.15,-1.27 l-3.07,-3.41 s-22.93,-26.34 -37.56,-28.19 l-1.11,-2.19 a2.51,2.51 0 0 0 -3.37,-1.1 l-22.07,11 a2.49,2.49 0 0 0 -1.12,3.35 l2.47,4.85 h-0.05000000000000001 a0.23,0.23 0 0 0 -0.1,0.32000000000000006 l0.8700000000000001,1.71 a0.24000000000000002,0.24000000000000002 0 0 0 0.32000000000000006,0.11000000000000001 h0 v0 l0.91,1.79 h0 a0.27,0.27 0 0 0 -0.12000000000000001,0.36000000000000004 l1.6500000000000001,3.24 a0.26,0.26 0 0 0 0.36000000000000004,0.12000000000000001 h0 l0.6700000000000002,1.31 h0 a0.26,0.26 0 0 0 -0.11000000000000001,0.3400000000000001 l1.6800000000000002,3.3 a0.24000000000000002,0.24000000000000002 0 0 0 0.3400000000000001,0.11000000000000001 h0 l16,31.61 a2.52,2.52 0 0 0 3.37,1.11 l16.94,-8.47 l0.6000000000000001,0.44000000000000006 l5,6.43 c-0.8500000000000001,2 -1.56,4 -2.16,5.79 a1.54,1.54 0 0 1 -0.05000000000000001,0.17 c-0.13,0.38000000000000006 -0.25,0.7600000000000001 -0.36000000000000004,1.12 l-0.12000000000000001,0.38000000000000006 c-0.12000000000000001,0.37000000000000005 -0.23,0.7300000000000001 -0.33000000000000007,1.07 l-0.18000000000000002,0.6400000000000001 c0,0.12000000000000001 -0.08000000000000002,0.25 -0.11000000000000001,0.37000000000000005 c-0.55,1.94 -0.9,3.44 -1.09,4.27 l-1.29,-0.4 l1.26,0.54 c0,0.07 0,0.15000000000000002 0,0.2 c-0.06000000000000001,0.26 -0.08000000000000002,0.41000000000000003 -0.08000000000000002,0.41000000000000003 c0.38000000000000006,0.18000000000000002 0.78,0.35000000000000003 1.2,0.52 c6.83,3 40.94,17.94 42.69,20.21 c1.9500000000000002,2.52 14.83,9.88 26.54,3.68 s14.24,-15.69 14.24,-15.69 s11.32,-15.7 11.71,-18 s9.17,-5 9.17,-5 s0.78,26 -3.71,35.46 s-12.88,51.53 -12.88,51.53 a6.16,6.16 0 0 1 1.6600000000000001,-0.1 l-0.49000000000000005,2.43 a5.54,5.54 0 0 1 2.06,0 c-0.6200000000000001,4.77 -4.2,27 -4.2,27 s-1.17,10.08 -3.13,13.56 s-2.14,21.7 -2.14,21.7 l-3.12,13.18 s0.41000000000000003,0.91 1.18,2.27 v0.05000000000000001 s3.35,7.44 9,11.61 a23.82,23.82 0 0 1 -1.57,6 c-2,3.87 -1.56,9.3 -1.56,9.3 s-3.31,14.91 -2.93,19.18 S695.4100036621094,480.9399993896484 695.4100036621094,480.9399993896484 l-3.51,33.71 s-2.34,29.25 -1.17,37.2 s-0.78,18.79 -0.78,18.79 s2.34,23.06 1.75,25.57 s-3.51,13.37 -1.75,19.38 s0.78,22.47 0.78,22.47 s1.17,21.71 2.5300000000000002,28.68 s-0.39000000000000007,15.89 -0.39000000000000007,15.89 s-1.37,14.92 -2,14.92 s-5.66,10.26 4.68,20.34 S699.5100036621094,726.3899993896484 699.5100036621094,726.3899993896484 s-8.2,-4.07 -7.22,4.26 c0.92,7.93 2.21,5.86 2.33,5.640000000000001 l-2,6.37 s0.51,0.06000000000000001 1.37,0.19000000000000003 l-1.13,1.36 a30.79,30.79 0 0 1 -3.94,4.08 c-2.34,1.7400000000000002 -2.54,5.61 -2.54,5.61 s-14.43,15.7 -27.89,23.64 c-7.08,4.18 -13.2,7.72 -15.86,10.64 c-2.4,2.63 -2,4.76 3,6.41 c10.54,3.49 29.07,5.23 42.33,0.78 a49.37,49.37 0 0 0 20.68,-13.37 s8.4,-4.27 16.59,-2.72 s24.58,-9.1 24.58,-9.1 l-0.30000000000000004,-2.75 l-0.8700000000000001,-7.91 s-2,-2.33 -1.37,-4.84 c0.27,-1.1400000000000001 -0.14,-4.08 -0.6700000000000002,-7 c-0.14,-0.77 -0.29000000000000004,-1.53 -0.44000000000000006,-2.25 l1.5,-0.28 s-1.94,-9.88 1.57,-11.82 s2.5300000000000002,-27.32 2.5300000000000002,-27.32 s-4.49,-5.8100000000000005 -6.83,-6.78 s-0.2,-13 0.2,-14.53 s3.51,-31.58 3.51,-31.58 s-1.17,-9.49 0.39000000000000007,-13.56 s-1.9500000000000002,-19.76 -1.9500000000000002,-19.76 s-1.17,-1.94 1,-4.27 S749.4100036621094,592.5399993896484 749.4100036621094,592.5399993896484 s-0.19000000000000003,-10.46 -0.19000000000000003,-13.18 s2.34,-12.59 4.48,-15.88 s0.79,-13.57 0.79,-13.57 v0 l0.12000000000000001,-0.77 c0,-0.29000000000000004 0.1,-0.6700000000000002 0.17,-1.1 l0.18000000000000002,-1 a146.82,146.82 0 0 1 3.8,-16.82 c2.54,-8.14 5.47,-22.47 5.47,-22.47 L782.4100036621094,460.38999938964844 l0.21000000000000002,-0.56 s8.38,15.5 8.38,29.85 c0,0 2.16,17.24 1.57,21.89 s1.7600000000000002,26.54 1.7600000000000002,26.54 s2.5300000000000002,31.38 2.5300000000000002,32.74 s3.12,25.58 5.08,29.27 s-2,14.91 -3.13,16.07 s0.39000000000000007,29.65 0.39000000000000007,29.65 s-2.93,22.47 -3.51,27.12 s-2.93,22.48 -1,29.46 s1.17,7.94 1.17,7.94 s7,7.17 2.93,7.75 s-10.33,5.8100000000000005 -7.8100000000000005,14.14 s8.6,20.74 8.6,20.74 s1.21,-0.27 3.23,-0.6800000000000002 l0,2.3 l0.24000000000000002,11.55 s1.36,11 0.5800000000000001,13.57 c-0.5700000000000001,1.83 -1.35,10.52 -1.73,15 c-0.14,1.6600000000000001 -0.22000000000000003,2.77 -0.22000000000000003,2.77 s0,10.26 21.65,7.17 s25.56,-11.63 25.56,-11.63 l0.16000000000000003,-1.07 c0.32000000000000006,-2 1,-6.11 1.59,-8.42 c0.79,-3.11 -6.23,-17.06 -6.23,-17.06 s-1.18,-9.48 -3.13,-11.620000000000001 a10.28,10.28 0 0 1 -1.57,-4.07 c-0.18000000000000002,-0.78 -0.33000000000000007,-1.59 -0.46,-2.39 c0.51,0.07 1,0.16000000000000003 1.44,0.26 c0,0 -1.17,-6.78 3.33,-8.92 s3.31,-6.58 2.73,-8.52 s1.75,-12.78 1.75,-12.78 a6.33,6.33 0 0 1 1.56,-6.2 c2.74,-2.72 4.88,-21.71 4.88,-21.71 L855.4100036621094,617.3899993896484 s1.37,-13 -0.19000000000000003,-18.22 s-3.13,-15.3 -1,-18 s0.2,-15.3 0.2,-15.3 s0,-26.55 2.92,-33.13 s2,-48.25 2,-48.25 l0.77,-27.31 s6.37,-6 4.86,-37.48 c6.8,-0.42000000000000004 14.47,-0.6700000000000002 15.63,0.27 c2.14,1.7400000000000002 16,10.66 24.19,5 c1.7600000000000002,-0.78 9.75,-7.5600000000000005 9.75,-7.5600000000000005 l-3.44,-58.09 c2.15,3.24 3.45,5.39 3.45,5.39 c0,-8.14 23,-34.49 23,-34.49 s21.46,-27.7 26.14,-31 s13.85,-20.73 13.85,-20.73 a85.71,85.71 0 0 1 4.69,-9.69 C984.3500036621094,265.2899993896484 977.3300036621094,255.98999938964846 978.1100036621094,253.84999938964842 zm-50.34,20.35 c-5.85,0.5800000000000001 -18.14,13.95 -18.34,16.85 c-0.1,1.53 -1.3900000000000001,3.59 -2.59,5.21 c-0.09000000000000002,-1.17 -0.19000000000000003,-2.36 -0.29000000000000004,-3.5700000000000003 c-1.3800000000000001,-17.12 -2.8600000000000003,-38 -2.18,-40 c1.17,-3.49 0.77,-19.18 0.77,-19.18 l0,0 l0.22000000000000003,-0.30000000000000004 c3.94,12.16 16.15,26.5 16.15,26.5 s2.15,6.2 4.68,6.39 S927.7700036621094,274.19999938964844 927.7700036621094,274.19999938964844 z" fill="url(#d0fcbace-0635-4911-8b0c-c4f3fdb0b5b3)" id="svg_26"/><path d="M614.9600036621093,269.76999938964843 s7.11,-37.3 30,-37.49 l16.72,34.42 L650.5300036621094,274.38999938964844 S626.3000036621094,275.1599993896484 614.9600036621093,269.76999938964843 z" fill="#65617d" id="svg_27"/><path d="M661.6800036621094,266.68999938964845 L650.5300036621094,274.38999938964844 s-17,0.54 -29.24,-2.46 a33.72,33.72 0 0 1 -6.33,-2.16 s0,-0.2 0.13,-0.6000000000000001 a1.21,1.21 0 0 1 0,-0.14 a84.41,84.41 0 0 1 4.33,-13.7 c0.7000000000000001,-1.6700000000000002 1.5,-3.4 2.36,-5.12 c3.35,-6.45 8.06,-12.77 14.5,-15.9 a19.8,19.8 0 0 1 7.63,-2 l0.6800000000000002,0 h0.3400000000000001 l0.36000000000000004,0.7600000000000001 l5.66,11.63 z" opacity="0.1" id="svg_28"/><path d="M851.6600036621094,421.67999938964846 s24,-2.31 26.15,-0.5800000000000001 s15.77,10.58 23.84,5 s2.6900000000000004,-25 2.6900000000000004,-25.77 s-0.7600000000000001,-28.26 -0.7600000000000001,-28.26 l-14.43,-19.42 l-18.07,-34 l-36.92,-3.6500000000000004 l1,54 l-0.19000000000000003,27.69 z" fill="#65617d" id="svg_29"/><path d="M851.6600036621094,421.67999938964846 s24,-2.31 26.15,-0.5800000000000001 s15.77,10.58 23.84,5 s2.6900000000000004,-25 2.6900000000000004,-25.77 s-0.7600000000000001,-28.26 -0.7600000000000001,-28.26 l-14.43,-19.42 l-18.07,-34 l-36.92,-3.6500000000000004 l1,54 l-0.19000000000000003,27.69 z" opacity="0.1" id="svg_30"/><path d="M640.1400036621094,231.31999938964844 s-1.9100000000000001,23.46 -16.53,23.84 c0,0 -4.14,-2.5 -9.71,-6.66 c-12.84,-9.61 -33.22,-28.08 -27.59,-45.26 c8.08,-24.61 47.3,20.77 47.3,20.77 l3,3.38 z" fill="#fbbebe" id="svg_31"/><path d="M640.1400036621094,231.31999938964844 s-1.9100000000000001,23.46 -16.53,23.84 c0,0 -4.14,-2.5 -9.71,-6.66 l-1.25,-1.6 a19.09,19.09 0 0 0 8,2.15 c3.67,0.08000000000000002 7.8,-1.28 10.45,-6.58 a83.76,83.76 0 0 0 4,-9.31 a27.46,27.46 0 0 0 1.48,-5.77 z" opacity="0.1" id="svg_32"/><path d="M633.8000036621094,273.80999938964845 l-3.29,-4.23 L619.4100036621094,255.32999938964844 l-5.640000000000001,-7.28 a19,19 0 0 0 8,2.16 c3.67,0.08000000000000002 7.8,-1.28 10.46,-6.59 a83.41,83.41 0 0 0 4,-9.31 c1.83,-5.19 1.79,-7.86 1.15,-8.76 s4.08,3.49 6.35,5.640000000000001 l0.08000000000000002,0.08000000000000002 c0.6500000000000001,0.6000000000000001 1.07,1 1.07,1 l0.39000000000000007,0.78 l5.57,11.14 l0.06000000000000001,0.47000000000000003 C651.4100036621094,248.19999938964844 653.2900036621094,270.62999938964845 633.8000036621094,273.80999938964845 z" fill="#e7effd" id="svg_33"/><path d="M748.9800036621094,768.7499993896485 s-16.15,10.58 -24.22,9 s-16.35,2.7 -16.35,2.7 a48.66,48.66 0 0 1 -20.39,13.27 c-13.07,4.42 -31.33,2.6900000000000004 -41.71,-0.78 c-4.92,-1.6300000000000001 -5.3100000000000005,-3.75 -2.95,-6.35 c2.63,-2.91 8.66,-6.42 15.64,-10.57 c13.26,-7.88 27.49,-23.46 27.49,-23.46 s0.19000000000000003,-3.84 2.5,-5.57 a29.84,29.84 0 0 0 3.88,-4 c2.06,-2.44 4,-5 4,-5 l47.5,1.54 s0.81,3.43 1.44,6.93 c0.53,2.87 0.9400000000000001,5.79 0.6700000000000002,6.92 c-0.5800000000000001,2.49 1.35,4.8 1.35,4.8 l0.8500000000000001,7.85 z" fill="#65617d" id="svg_34"/><path d="M848.4100036621094,782.0099993896484 c-0.5700000000000001,2.3 -1.26,6.43 -1.57,8.37 c-0.11000000000000001,0.6600000000000001 -0.16000000000000003,1.06 -0.16000000000000003,1.06 s-3.85,8.46 -25.19,11.54 s-21.34,-7.12 -21.34,-7.12 s0.08000000000000002,-1.1 0.22000000000000003,-2.75 c0.37000000000000005,-4.5 1.1400000000000001,-13.11 1.7000000000000002,-14.94 c0.77,-2.5 -0.5700000000000001,-13.46 -0.5700000000000001,-13.46 l-0.23,-11.46 l-0.16000000000000003,-8 l35.38,-3.66 a67.68,67.68 0 0 0 1.1400000000000001,7.88 a10,10 0 0 0 1.55,4 c1.92,2.13 3.08,11.54 3.08,11.54 S849.1600036621094,778.9299993896484 848.4100036621094,782.0099993896484 z" fill="#65617d" id="svg_35"/><path d="M744.4100036621094,739.5199993896484 s0.81,3.43 1.44,6.93 c-5.13,0.9400000000000001 -27.56,4.83 -33.17,2.11 c-6.34,-3.08 -20,-4.8100000000000005 -20,-4.8100000000000005 l0.23,-0.78 c2.06,-2.44 4,-5 4,-5 z" opacity="0.1" id="svg_36"/><path d="M837.6100036621094,749.5099993896484 c-9,-1.52 -28.62,2.16 -36.36,3.74 l-0.16000000000000003,-8 l35.38,-3.66 A67.68,67.68 0 0 0 837.6100036621094,749.5099993896484 z" opacity="0.1" id="svg_37"/><path d="M857.6200036621094,458.01999938964843 l-0.77,27.11 s1,41.34 -1.92,47.88 s-2.89,32.88 -2.89,32.88 s1.9300000000000002,12.5 -0.19000000000000003,15.18 s-0.5800000000000001,12.7 1,17.89 s0.18000000000000002,18.08 0.18000000000000002,18.08 l-0.38000000000000006,72.68 s-2.11,18.84 -4.8100000000000005,21.54 a6.3,6.3 0 0 0 -1.53,6.15 s-2.31,10.76 -1.73,12.69 s1.73,6.34 -2.6900000000000004,8.45 s-3.2800000000000002,8.85 -3.2800000000000002,8.85 c-10.57,-2.5 -40.56,4.24 -40.56,4.24 s-6,-12.31 -8.47,-20.58 s3.66,-13.46 7.69,-14 s-2.88,-7.7 -2.88,-7.7 s0.77,-1 -1.15,-7.88 s0.38000000000000006,-24.62 1,-29.23 s3.46,-26.92 3.46,-26.92 s-1.53,-28.26 -0.38000000000000006,-29.42 s5,-12.31 3.08,-16 s-5,-27.69 -5,-29 s-2.5,-32.5 -2.5,-32.5 s-2.3,-21.73 -1.73,-26.34 s-1.54,-21.72 -1.54,-21.72 c0,-14.24 -8.26,-29.62 -8.26,-29.62 l-0.21000000000000002,0.55 l-17.87,47 s-2.88,14.22 -5.39,22.3 a146.13,146.13 0 0 0 -3.75,16.69 l-0.17,1 c-0.07,0.43000000000000005 -0.13,0.8 -0.17,1.08 l-0.12000000000000001,0.78 v0 s1.34,10.19 -0.77,13.46 S748.4100036621094,576.6599993896484 748.4100036621094,579.3899993896484 s0.18000000000000002,13.09 0.18000000000000002,13.09 s0.78,20.57 -1.34,22.88 s-1,4.23 -1,4.23 s3.47,15.57 1.9300000000000002,19.61 s-0.38000000000000006,13.45 -0.38000000000000006,13.45 S744.7500036621094,682.3899993896484 744.4100036621094,683.9499993896484 s-2.5,13.46 -0.2,14.42 s6.73,6.73 6.73,6.73 s1,25.19 -2.49,27.11 s-1.55,11.73 -1.55,11.73 s-27.87,5.39 -34.22,2.31 s-20,-4.8100000000000005 -20,-4.8100000000000005 l1.9100000000000001,-6.32 c-0.11000000000000001,0.22000000000000003 -1.3800000000000001,2.27 -2.29,-5.6 c-1,-8.27 7.12,-4.23 7.12,-4.23 s6.34,1.54 -3.8600000000000003,-8.46 s-5.19,-20.19 -4.61,-20.19 s1.92,-14.8 1.92,-14.8 s1.73,-8.85 0.38000000000000006,-15.77 s-2.49,-28.46 -2.49,-28.46 s1,-16.34 -0.77,-22.3 s1.15,-16.73 1.73,-19.24 s-1.73,-25.38 -1.73,-25.38 s1.9300000000000002,-10.76 0.77,-18.64 s1.1600000000000001,-36.92 1.1600000000000001,-36.92 l3.46,-33.46 s2.49,-10.38 2.11,-14.61 s2.88,-19 2.88,-19 s-0.38000000000000006,-5.39 1.54,-9.23 s2.7,-16.53 2.7,-16.53 l18.46,-42.31 l9,-37.3 l122.1,-1.15 s0.45,3.23 1.18,9.11 s1.79,14.59 3,25.33 c1.06,9.76 2.22,21.24 3.36,34 C865.3100036621094,450.70999938964843 857.6200036621094,458.01999938964843 857.6200036621094,458.01999938964843 z" fill="#3f3d56" id="svg_38"/><path d="M846.2800036621094,121.32999938964844 L817.8100036621094,151.71999938964845 s-36.52,-14.620000000000001 -32.68,-19.62 c1.49,-1.94 1.25,-8 0.39000000000000007,-14.78 c-1.35,-10.64 -4.23,-22.91 -4.23,-22.91 s63.83,-10.38 58.44,0.38000000000000006 c-2,3.94 -1.62,8.53 -0.4,12.77 A48,48 0 0 0 846.2800036621094,121.32999938964844 z" fill="#fbbebe" id="svg_39"/><path d="M839.7300036621094,94.78999938964844 c-2,3.94 -2.9,4.32 -1.6700000000000002,8.56 c-8.35,9 -19,18.75 -32.16,18.75 a45.53,45.53 0 0 1 -20.38,-4.78 c-1.35,-10.64 -4.23,-22.91 -4.23,-22.91 S845.1200036621094,84.02999938964844 839.7300036621094,94.78999938964844 z" opacity="0.1" id="svg_40"/><path d="M851.6600036621094,75.17999938964844 a45.77,45.77 0 1 1 -91.53,0 c0,-0.22000000000000003 0,-0.44000000000000006 0,-0.6600000000000001 a45.76,45.76 0 0 1 91.52,0.6600000000000001 z" fill="#fbbebe" id="svg_41"/><path d="M858.2900036621094,377.0899993896484 c-6.06,0.05000000000000001 -26.25,0.22000000000000003 -48.81,0.5800000000000001 h-0.27 l-7.46,0.12000000000000001 h-0.23 c-26.75,0.43000000000000005 -53.11,-4.8 -63.69,-3.8 c-22.5,2.11 8.07,-20.77 8.07,-20.77 s24.35,6.5 51.25,5.18 l6.47,-0.33000000000000007 c20.45,-1.1600000000000001 41,-3.08 51.72,-6.3 C856.0900036621093,357.70999938964843 857.1300036621094,366.38999938964844 858.2900036621094,377.0899993896484 z" opacity="0.1" id="svg_42"/><path d="M858.2900036621094,375.93999938964845 c-6.06,0 -26.25,0.22000000000000003 -48.81,0.5700000000000001 h-0.27 l-7.46,0.13 h-0.23 c-26.75,0.43000000000000005 -53.11,-4.8 -63.69,-3.81 c-22.5,2.11 8.07,-20.76 8.07,-20.76 s24.35,6.49 51.25,5.18 l6.47,-0.3400000000000001 c20.45,-1.15 41,-3.08 51.72,-6.3 C856.0900036621093,356.54999938964846 857.1300036621094,365.19999938964844 858.2900036621094,375.93999938964845 z" fill="#e3a79f" id="svg_43"/><path d="M793.5900036621093,134.01999938964843 L758.2100036621093,150.55999938964842 L730.9100036621094,361.67999938964846 s16.15,-7.3 25.38,-2.6900000000000004 s37.68,0.39000000000000007 37.68,0.39000000000000007 s20.77,-1.1600000000000001 23.85,1.15 s39.22,-9.61 39.22,-9.61 s6.54,-14.620000000000001 1.54,-16.92 s1.54,-25 1.54,-25 l-3.08,-152.29 l-6.15,-19.61 l-16.54,-10 L817.4100036621094,140.55999938964842 L809.4100036621094,141.70999938964843 z" opacity="0.1" id="svg_44"/><path d="M793.5900036621093,131.70999938964843 L758.2100036621093,148.24999938964845 L730.9100036621094,359.38999938964844 s16.15,-7.3100000000000005 25.38,-2.6900000000000004 s37.68,0.38000000000000006 37.68,0.38000000000000006 s20.77,-1.15 23.85,1.15 s39.22,-9.61 39.22,-9.61 s6.54,-14.61 1.54,-16.92 s1.54,-25 1.54,-25 L857.0400036621094,154.38999938964844 l-6.15,-19.61 l-16.54,-10 L817.4100036621094,138.24999938964845 L809.4100036621094,139.38999938964844 z" fill="#e7effd" id="svg_45"/><path d="M793.0100036621094,141.51999938964843 s10.19,12.11 10,14.61 s-0.5700000000000001,8.46 -0.5700000000000001,8.46 l-7.7,15.58 s-4.23,19.42 -4.23,23.46 s-6.73,39 -6.73,39 l-8.07,53.84 l-10.19,70.57 l10.38,17.88 l12.31,-10.38 l16.34,-125.76 l3.46,-24.8 s3.6500000000000004,-44.61 3.6500000000000004,-49.22 s-2.11,-16.73 -2.11,-16.73 s2.5,-11.54 12.88,-14.23 s-0.77,-0.5800000000000001 -0.77,-0.5800000000000001 l-6,-4.8100000000000005 l-5.19,2.12 S796.0900036621093,136.13999938964844 793.0100036621094,141.51999938964843 z" opacity="0.1" id="svg_46"/><path d="M791.8600036621094,140.38999938964844 s10.19,12.11 10,14.61 s-0.5800000000000001,8.46 -0.5800000000000001,8.46 l-7.69,15.58 S789.4100036621094,198.43999938964845 789.4100036621094,202.46999938964845 s-6.73,39 -6.73,39 L774.5500036621094,295.38999938964844 L764.4100036621094,365.9099993896484 l10.39,17.89 L787.0500036621094,373.38999938964844 L803.4100036621094,247.65999938964842 l3.46,-24.8 s3.6500000000000004,-44.61 3.6500000000000004,-49.23 S808.4100036621094,156.89999938964843 808.4100036621094,156.89999938964843 s2.5,-11.53 12.88,-14.23 s-0.77,-0.5700000000000001 -0.77,-0.5700000000000001 l-6,-4.8100000000000005 L809.4100036621094,139.38999938964844 S794.9400036621093,134.97999938964844 791.8600036621094,140.38999938964844 z" fill="#3f3d56" id="svg_47"/><path d="M785.1300036621094,120.17999938964843 s-1.54,1.15 -1.92,8.84 s-5.77,25 -5.77,25 s20,-13.85 30,-12.31 z" opacity="0.1" id="svg_48"/><path d="M785.1300036621094,117.86999938964843 s-1.54,1.15 -1.92,8.85 s-5.77,25 -5.77,25 s20,-13.84 30,-12.3 z" fill="#e7effd" id="svg_49"/><path d="M839.7400036621094,114.01999938964843 l-31.54,27.69 s26.54,15.77 30,19.62 s6.92,-37.69 6.92,-37.69 z" opacity="0.1" id="svg_50"/><path d="M840.8900036621094,111.71999938964845 L809.4100036621094,139.38999938964844 s26.53,15.76 30,19.61 s6.93,-37.69 6.93,-37.69 z" fill="#e7effd" id="svg_51"/><path d="M786.2800036621094,120.17999938964843 s-3.46,-1.73 -6.73,3.27 s-9.42,7.3 -9.42,7.3 s-35,5.58 -36.34,10.19 l-16.34,1 s-5.77,0.7600000000000001 -6.35,12.88 S707.4100036621094,168.05999938964842 707.4100036621094,168.05999938964842 s-6.73,11.92 -6.16,18.07 s-5.19,9.23 -5.19,9.23 l24,62.49 s0.77,25.77 -3.66,35.19 s-12.69,51.15 -12.69,51.15 s3.47,-0.77 3.27,1.53 s-4.23,27.5 -4.23,27.5 s-1.15,10 -3.07,13.46 s-2.12,21.54 -2.12,21.54 l-3.08,13.07 s7.3100000000000005,16.35 18.46,14 S744.4100036621094,389.38999938964844 744.4100036621094,389.38999938964844 l12.88,-47.11 l10,-46.53 l2.88,-31.53 l4.62,-69.8 l6.73,-46.15 S788.9800036621094,123.44999938964844 786.2800036621094,120.17999938964843 z" opacity="0.1" id="svg_52"/><path d="M785.1300036621094,117.86999938964843 s-3.46,-1.73 -6.73,3.27 s-9.42,7.3100000000000005 -9.42,7.3100000000000005 s-35,5.57 -36.34,10.19 l-16.35,1 s-5.77,0.77 -6.34,12.88 s-3.66,13.27 -3.66,13.27 s-6.73,11.92 -6.15,18.07 s-5.19,9.23 -5.19,9.23 l24,62.49 s0.77,25.77 -3.6500000000000004,35.19 s-12.69,51.15 -12.69,51.15 s3.46,-0.77 3.27,1.54 s-4.23,27.49 -4.23,27.49 s-1.15,10 -3.08,13.46 s-2.11,21.54 -2.11,21.54 L693.4100036621094,418.9799993896484 s7.3100000000000005,16.35 18.46,14 s31.34,-45.95 31.34,-45.95 l12.89,-47.11 l10,-46.54 l2.89,-31.53 l4.61,-69.8 l6.73,-46.15 S787.8200036621093,121.13999938964844 785.1300036621094,117.86999938964843 z" fill="#65617d" id="svg_53"/><path d="M661.6800036621094,266.68999938964845 L650.5300036621094,274.38999938964844 s-17,0.54 -29.24,-2.46 l-6.2,-2.7600000000000002 l-1.25,-0.54 l1.28,0.4 c6.43,1.9100000000000001 11.46,1.87 15.39,0.55 c15.78,-5.3100000000000005 14,-31.37 13.43,-37.27 c-0.06000000000000001,-0.5900000000000001 -0.1,-1 -0.13,-1.12 a0.32000000000000006,0.32000000000000006 0 0 1 0,-0.07 l0.09000000000000002,0.15000000000000002 a7.06,7.06 0 0 0 0.7300000000000001,1 c0.22000000000000003,0.25 0.45,0.51 0.7000000000000001,0.7500000000000001 l0,0 l5.57,11.14 l0.06000000000000001,0.47000000000000003 z" opacity="0.1" id="svg_54"/><path d="M700.3300036621093,191.50999938964844 l-5.38,1.54 l-0.77,11 s-6.35,-1 -8.08,6.54 s-4.8,11 -4.8,11 s-10.58,8.85 -11.16,16.34 l-6.53,4 S648.4100036621094,238.38999938964844 644.9600036621093,232.27999938964842 c0,0 6.92,49.61 -30,37.49 c0,0 41.34,18.08 43.26,20.58 s14.620000000000001,9.8 26.15,3.6500000000000004 S698.4100036621094,278.38999938964844 698.4100036621094,278.38999938964844 s11.15,-15.58 11.54,-17.89 s9,-5 9,-5 l16.54,-40 z" fill="#65617d" id="svg_55"/><path d="M835.3200036621093,137.09999938964845 l5.57,-25.38 s2.5,8.27 5,10.19 l8.27,6.34 s8.27,3.85 11.15,3.85 s18.46,4 20.38,6.15 s9.620000000000001,0.5800000000000001 9.620000000000001,0.5800000000000001 s6.34,2.11 11.92,3.46 s8.27,10.58 7.11,14.23 a11.09,11.09 0 0 0 2.7,10.38 c2.3,2.31 3.46,9.81 3.46,9.81 a11.25,11.25 0 0 1 6.53,5.57 c1.9300000000000002,4.23 1.35,13.46 1.35,13.46 l-28.65,40.38 s0.38000000000000006,15.58 -0.77,19 s4,62.3 4,62.3 l6,101.14 s-7.88,6.73 -9.61,7.5 s-3.47,-35.77 -3.47,-37.11 s-44.41,-66.53 -44.41,-66.53 s-6,-9.620000000000001 -6,-11.73 s-5.58,-21.54 -5.58,-21.54 l-8.46,-37.49 z" opacity="0.1" id="svg_56"/><path d="M930.7600036621094,193.53999938964844 c0,1.32 -0.07,2.2 -0.07,2.2 L902.0600036621094,236.08999938964843 l0,0 s0.4,15.57 -0.7600000000000001,19 c-0.6700000000000002,2 0.8,22.7 2.16,39.69 c1,12.27 1.8800000000000001,22.61 1.8800000000000001,22.61 l2.5300000000000002,42.9 l3.42,58.24 s-7.88,6.73 -9.61,7.5 s-3.46,-35.77 -3.46,-37.12 s-44.42,-66.52 -44.42,-66.52 s-6,-9.620000000000001 -6,-11.73 s-5.57,-21.54 -5.57,-21.54 l-8.46,-37.5 l3.84,-114.59 l3.27,-25.38 s4.8100000000000005,8.27 7.3100000000000005,10.18 s8.26,6.35 8.26,6.35 s8.27,3.85 11.16,3.85 s18.46,4 20.38,6.15 s9.620000000000001,0.5800000000000001 9.620000000000001,0.5800000000000001 s6.34,2.11 11.91,3.46 s8.27,10.58 7.12,14.22 a11.09,11.09 0 0 0 2.6900000000000004,10.39 c2.31,2.31 3.46,9.8 3.46,9.8 a11.29,11.29 0 0 1 6.54,5.59 C930.6800036621094,185.20999938964843 930.8100036621094,190.53999938964844 930.7600036621094,193.53999938964844 z" fill="#65617d" id="svg_57"/><path d="M695.7200036621093,705.8699993896485 c1,0 41.34,1.54 40.57,8.08 S695.7200036621093,705.8699993896485 695.7200036621093,705.8699993896485 z" opacity="0.1" id="svg_58"/><path d="M704.7600036621094,716.8299993896485 s27.11,4.42 20,8.46 S704.7600036621094,716.8299993896485 704.7600036621094,716.8299993896485 z" opacity="0.1" id="svg_59"/><path d="M805.5100036621094,701.6399993896484 s45,3.85 38.27,8.84 s-22.69,5.77 -23.46,6 S805.5100036621094,701.6399993896484 805.5100036621094,701.6399993896484 z" opacity="0.1" id="svg_60"/><path d="M800.1300036621094,721.4499993896484 s25,4.23 25.76,9 S800.1300036621094,721.4499993896484 800.1300036621094,721.4499993896484 z" opacity="0.1" id="svg_61"/><path d="M813.9700036621093,605.6899993896484 s22.88,5.38 24.23,9 z" opacity="0.1" id="svg_62"/><path d="M725.7100036621093,622.2299993896485 s-11.92,3.46 -0.38000000000000006,10.38 S725.7100036621093,622.2299993896485 725.7100036621093,622.2299993896485 z" opacity="0.1" id="svg_63"/><path d="M778.5900036621093,437.43999938964845 c1.35,0 22.31,-6.92 29.61,-3.84 s16.35,3.07 16.35,3.07 z" opacity="0.1" id="svg_64"/><path d="M781.2900036621094,459.38999938964844 l-0.21000000000000002,1.9 l-17.87,47 s-2.88,14.22 -5.39,22.3 a146.13,146.13 0 0 0 -3.75,16.69 l15.870000000000001,-98.41 z" opacity="0.1" id="svg_65"/><path d="M809.2100036621093,376.50999938964844 l-7.46,0.13 h-0.23 l-4.37,-19.38 c2.15,-0.11000000000000001 4.3,-0.22000000000000003 6.47,-0.35000000000000003 z" fill="#3f3d56" id="svg_66"/><path d="M899.9200036621094,353.0399993896484 l-4.79,3.94 l-16,13.16 s-43.27,23.08 -55.19,1.1600000000000001 c-10.51,-19.31 38.55,-33.1 50.36,-36.11 c1.61,-0.41000000000000003 2.52,-0.6100000000000001 2.52,-0.6100000000000001 z" fill="#fbbebe" id="svg_67"/><path d="M715.1400036621094,164.01999938964843 s8.46,3.84 10.38,9.23 S715.1400036621094,164.01999938964843 715.1400036621094,164.01999938964843 z" opacity="0.1" id="svg_68"/><path d="M688.9900036621094,221.69999938964844 s-12.31,15 -7.3100000000000005,20.77 S688.9900036621094,221.69999938964844 688.9900036621094,221.69999938964844 z" opacity="0.1" id="svg_69"/><path d="M908.9600036621093,172.47999938964844 s-11.54,1.15 -11.92,11.15 z" opacity="0.1" id="svg_70"/><path d="M802.0500036621094,330.1499993896484 c1.15,-1.15 27.69,-40.38 33.84,-36.92 z" opacity="0.1" id="svg_71"/><path d="M851.6600036621094,75.17999938964844 a45.6,45.6 0 0 1 -5.41,21.6 l-0.3400000000000001,-0.06000000000000001 c-2.9,-0.6100000000000001 -4.41,-4 -6.63,-6.1 a9,9 0 0 0 -10.38,-1.46 a10.56,10.56 0 0 0 -5.1,9.870000000000001 c-1.46,-6.16 -1,-12.71 -2.43,-18.88 s-5.74,-12.41 -11.63,-12.52 c-2.54,0 -5.51,0.9400000000000001 -7.34,-1 c-1.11,-1.15 -1.34,-3 -2.17,-4.35 c-4.21,-6.82 -17,-3.37 -22.26,0.12000000000000001 c-5.06,3.36 -11.32,9.08 -17.83,12.08 a45.76,45.76 0 0 1 91.52,0.6600000000000001 z" opacity="0.1" id="svg_72"/><path d="M800.2300036621094,61.15999938964843 c0.8400000000000001,1.3900000000000001 1.06,3.21 2.17,4.35 c1.83,1.9 4.8,0.93 7.34,1 c5.890000000000001,0.1 10.2,6.35 11.63,12.52 s1,12.71 2.43,18.87 a10.54,10.54 0 0 1 5.11,-9.86 a9,9 0 0 1 10.37,1.45 c2.22,2.11 3.73,5.49 6.63,6.1 s5.7,-2.17 6.74,-5.23 s1,-6.41 1.6600000000000001,-9.58 c1.31,-6 5.22,-10.91 7.39,-16.61 a30.12,30.12 0 0 0 -0.2,-21.48 c-1.44,-3.6100000000000003 -3.59,-6.86 -5,-10.47 c-2.22,-5.48 -2.8,-11.66 -5.49,-16.88 c-4.53,-8.74 -15.19,-13.12 -23.95,-9.83 c-4.18,1.57 -7.8100000000000005,4.61 -12.05,6 c-5.69,1.82 -11.76,0.45 -17.65,-0.37000000000000005 s-12.38,-0.9 -17.11,3 c-5.44,4.45 -6.93,12.82 -12,17.71 c-2.15,2.05 -4.82,3.36 -7.09,5.26 s-4.22,4.72 -4,7.8100000000000005 c0.3400000000000001,4 4.24,7.6 2.8,11.29 a9.14,9.14 0 0 1 -2.13,2.81 a40.06,40.06 0 0 0 -9.31,15.84 c10.29,3.21 21.43,-8.13 29.48,-13.49 C783.2100036621093,57.799999389648434 796.0200036621094,54.38999938964844 800.2300036621094,61.15999938964843 z" fill="#7c5c5c" id="svg_73"/><path d="M899.9200036621094,353.0399993896484 l-4.79,3.94 c-4.22,-7 -21.55,-21.07 -21.55,-21.07 l0.7500000000000001,-0.7200000000000001 c1.61,-0.41000000000000003 2.52,-0.6100000000000001 2.52,-0.6100000000000001 z" opacity="0.1" id="svg_74"/><path d="M904.5400036621094,345.9199993896484 s-1.7200000000000002,4.28 -3.5,8 s-3.71,7.06 -3.81,4.33 c-0.19000000000000003,-5.39 -22.49,-23.47 -22.49,-23.47 l3,-2.94 l3.51,-3.4 z" fill="#e7effd" id="svg_75"/><path d="M905.3100036621094,317.45999938964843 l2.5300000000000002,42.9 c-6,-9.29 -22.37,-33.1 -32.92,-32.33 l25.58,-29.41 a34.41,34.41 0 0 0 2.93,-3.77 C904.4100036621094,307.11999938964846 905.3100036621094,317.45999938964843 905.3100036621094,317.45999938964843 z" opacity="0.1" id="svg_76"/><path d="M904.5400036621094,345.9199993896484 s-1.7200000000000002,4.28 -3.5,8 c-6.7,-9.19 -15.92,-20.05 -23.28,-22.08 l3.51,-3.4 z" opacity="0.1" id="svg_77"/><path d="M923.7700036621094,190.38999938964844 l6.92,5.38 s11.53,0.2 12.69,9.81 s11.73,14 11.73,14 s7.88,7.88 7.88,11.53 s6,10.2 6,10.77 s5.77,12.31 5,14.42 s6.15,11.35 4,14.81 a84.76,84.76 0 0 0 -4.62,9.61 s-9,17.31 -13.65,20.58 s-25.76,30.76 -25.76,30.76 s-22.69,26.15 -22.69,34.23 c0,0 -22.12,-36.92 -35.19,-36 l25.57,-29.42 s4.43,-4.8 4.62,-7.69 s12.3,-16.15 18.07,-16.73 c0,0 1,-7.88 -1.54,-8.07 s-4.61,-6.35 -4.61,-6.35 s-16.92,-20 -17.11,-32.69 S923.7700036621094,190.38999938964844 923.7700036621094,190.38999938964844 z" fill="#65617d" id="svg_78"/><path d="M933.9600036621093,208.62999938964845 s-16.16,11.92 -12.69,15.76 S933.9600036621093,208.62999938964845 933.9600036621093,208.62999938964845 z" opacity="0.1" id="svg_79"/><path d="M934.7300036621094,257.8499993896484 s30,-9.61 33.07,0 z" opacity="0.1" id="svg_80"/><path d="M748.9800036621094,768.7499993896485 s-16.15,10.58 -24.22,9 s-16.35,2.7 -16.35,2.7 a48.66,48.66 0 0 1 -20.39,13.27 c-13.07,4.42 -31.33,2.6900000000000004 -41.71,-0.78 c-4.92,-1.6300000000000001 -5.3100000000000005,-3.75 -2.95,-6.35 c11.29,2.25 36.52,6.72 43.32,3.47 c8.84,-4.23 21.53,-13.46 21.53,-13.46 s16.55,-2.31 18.85,-2.31 c1.6400000000000001,0 14.41,-5.27 21.62,-8.3 z" opacity="0.1" id="svg_81"/><path d="M846.8200036621093,790.3899993896484 c-0.11000000000000001,0.6600000000000001 -0.16000000000000003,1.06 -0.16000000000000003,1.06 s-3.85,8.46 -25.19,11.54 s-21.34,-7.12 -21.34,-7.12 s0.08000000000000002,-1.1 0.22000000000000003,-2.75 C807.1000036621094,795.6699993896484 821.8400036621093,798.5399993896484 846.8200036621093,790.3899993896484 z" opacity="0.1" id="svg_82"/><path d="M723.1200036621094,206.31999938964844 s0,43.84 -3.75,48.17 S723.1200036621094,206.31999938964844 723.1200036621094,206.31999938964844 z" opacity="0.1" id="svg_83"/><path d="M896.4600036621093,220.44999938964844 l5.57,15.67 S904.2500036621094,220.73999938964846 896.4600036621093,220.44999938964844 z" opacity="0.1" id="svg_84"/><g opacity="0.1" id="svg_85"><path d="M760.5000036621094,52.38999938964844 c1.4100000000000001,-3.6100000000000003 -2.2800000000000002,-7.14 -2.7600000000000002,-11 a7.24,7.24 0 0 0 -0.6200000000000001,3.48 c0.25,2.91 2.4,5.640000000000001 3,8.33 A4.55,4.55 0 0 0 760.5000036621094,52.38999938964844 z" id="svg_86"/><path d="M824.3200036621093,93.79999938964843 c-1.3800000000000001,-6.07 -1,-12.49 -2.38,-18.55 s-5.73,-12.42 -11.620000000000001,-12.52 c-2.54,0 -5.51,0.93 -7.35,-1 c-1.1,-1.1400000000000001 -1.33,-3 -2.16,-4.35 c-4.21,-6.82 -17,-3.36 -22.27,0.13 c-7.87,5.23 -18.67,16.16 -28.75,13.68 c-0.49000000000000005,1.17 -0.9400000000000001,2.35 -1.31,3.56 c10.29,3.21 21.43,-8.13 29.48,-13.49 c5.25,-3.49 18.06,-7 22.27,-0.13 c0.8400000000000001,1.3900000000000001 1.06,3.21 2.17,4.35 c1.83,1.9 4.8,0.93 7.34,1 c5.890000000000001,0.1 10.2,6.35 11.63,12.52 s1,12.71 2.43,18.87 A10.38,10.38 0 0 1 824.3200036621093,93.79999938964843 z" id="svg_87"/><path d="M853.2300036621094,86.57999938964844 c-1,3.06 -3.79,5.86 -6.75,5.23 s-4.41,-4 -6.62,-6.1 a9,9 0 0 0 -10.38,-1.45 a10.48,10.48 0 0 0 -5.1,9.32 a10,10 0 0 1 4.53,-5.57 a9,9 0 0 1 10.37,1.45 c2.22,2.11 3.73,5.49 6.63,6.1 s5.7,-2.17 6.74,-5.23 a26.16,26.16 0 0 0 1.06,-5.52 A15.41,15.41 0 0 1 853.2300036621094,86.57999938964844 z" id="svg_88"/><path d="M862.2700036621094,60.38999938964844 c-2.16,5.7 -6.08,10.620000000000001 -7.38,16.62 c-0.26,1.21 -0.41000000000000003,2.45 -0.56,3.6900000000000004 c1.32,-6 5.21,-10.88 7.37,-16.56 a29.7,29.7 0 0 0 1.78,-8 A29.22,29.22 0 0 1 862.2700036621094,60.38999938964844 z" id="svg_89"/></g><rect x="561.8699951171875" y="537.2200317382812" width="0.8799999952316284" height="7.21999979019165" rx="0.3799999952316284" ry="0.3799999952316284" transform="rotate(-26.729999542236328 -120.33999633789074,290.260009765625) " fill="#3a3768" id="svg_90"/><rect x="526.3899536132812" y="532.8599853515625" width="0.49000000953674316" height="2.380000114440918" rx="0.20999999344348907" ry="0.20999999344348907" transform="rotate(-26.739999771118164 -126.20999908447274,277.51000976562494) " fill="#3a3768" id="svg_91"/><rect x="526.8800048828125" y="538.1900024414062" width="0.550000011920929" height="4.139999866485596" rx="0.23999999463558197" ry="0.23999999463558197" transform="rotate(-26.729999542236328 -128.05000305175807,279.0599975585937) " fill="#3a3768" id="svg_92"/><rect x="527.4200439453125" y="544.8499755859375" width="0.5299999713897705" height="4.170000076293945" rx="0.23000000417232513" ry="0.23000000417232513" transform="rotate(-26.729999542236328 -130.03999328613293,280.73001098632807) " fill="#3a3768" id="svg_93"/><rect x="531.4600219726562" y="527.5299682617188" width="29.299999237060547" height="59.560001373291016" rx="2.240000009536743" ry="2.240000009536743" transform="rotate(-26.729999542236328 -129.16999816894526,288.8599853515625) " fill="#3a3768" id="svg_94"/><path d="M589.3300036621093,195.93999938964845 a1,1 0 0 0 -0.46,1.4100000000000001 l0.1,0.19000000000000003 a1,1 0 0 1 -0.47000000000000003,1.4100000000000001 L577.4100036621094,204.53999938964844 a1,1 0 0 1 -1.4100000000000001,-0.46 l-0.1,-0.2 a1,1 0 0 0 -1.4100000000000001,-0.46 l-2.16,1.08 a2,2 0 0 0 -0.8900000000000001,2.7 l23.59,46.83 a2,2 0 0 0 2.7,0.8900000000000001 l19.35,-9.75 a2,2 0 0 0 0.8900000000000001,-2.6900000000000004 L594.4100036621094,195.63999938964844 a2,2 0 0 0 -2.6900000000000004,-0.8800000000000001 z" fill="#6c63ff" id="svg_95"/><rect x="540.489990234375" y="524.1199951171875" width="4.090000152587891" height="0.8299999833106995" rx="0.36000001430511475" ry="0.36000001430511475" transform="rotate(-26.729999542236328 -119.6399993896485,280.3699951171875) " fill="#e6e8ec" id="svg_96"/><circle cx="584.3900146484375" cy="199.13999938964844" r="0.4699999988079071" fill="#e6e8ec" id="svg_97"/><path d="M97.01000366210937,26.08999938964844 s97.14,-5.86 85.69,62.21 c0,0 2.27,12 -8.63,17.49 c0,0 -0.17,-5 -10,-3.33 a45.23,45.23 0 0 1 -10.56,0.5 a21.88,21.88 0 0 1 -12.9,-5.32 h0 S113.35000366210937,86.38999938964844 102.72000366210938,41.72999938964844 c0,0 -7.85,-9.74 -7.54,-12.24 l16.39,7 s-5.6,11.83 -1.19,21.66 c0,0 0.53,-21.23 3.68,-20.73 c0.6400000000000001,0.11000000000000001 8.52,4.1 8.52,4.1 s-9.64,20.6 -2.37,35.57 c0,0 -2.7600000000000002,-25.38 5.38,-34.08 l11.54,6.74 s-11.27,21.27 -3.63,38.64 c0,0 -2,-26.63 6,-37 l10.46,8.15 s-10.58,21 -4.13,35.37 c0,0 0.8400000000000001,-31 6.39,-33.34 c0,0 9.15,8.07 10.55,11.38 c0,0 -7.25,15.22 -2.75,23.26 c0,0 2.75,-20.65 5,-20.75 c0,0 9.12,13.69 10.07,23.06 c0,0 -0.4,-13.95 -7.86,-24.37 c0,0 8.81,1.51 14,7.23 c0,0 -1.42,-9.68 -16.21,-10.52 c0,0 -7.53,-10.38 -9.55,-11 c0,0 14.71,-1.23 23.63,2.72 c0,0 -7.85,-9.13 -26.32,-5 l-10.32,-8.42 s19.36,-2.66 27.57,0.27 c0,0 -9.45,-8.07 -30.36,-2.19 L128.41000366210938,40.52999938964844 s16.51,-3.56 26.35,-2.27 c0,0 -10.38,-5.6 -29.64,0.47000000000000003 l-8,-3.6100000000000003 s12.1,-2.38 15.64,-2.75 s3.73,-1.36 3.73,-1.36 a42,42 0 0 0 -22.72,2.5300000000000002 S96.72000366210938,27.159999389648434 97.01000366210937,26.08999938964844 z" fill="#009809" opacity="0.1" id="svg_98" class="" fill-opacity="1"/><path d="M151.41000366210938,208.18999938964845 s43.89,-2.6500000000000004 38.72,28.11 c0,0 1,5.43 -3.9,7.9 c0,0 -0.08000000000000002,-2.2800000000000002 -4.5,-1.51 a19.83,19.83 0 0 1 -4.77,0.23 a9.91,9.91 0 0 1 -5.83,-2.4 h0 s-12.34,-5.1 -17.14,-25.27 c0,0 -3.55,-4.39 -3.41,-5.52 l7.41,3.16 s-2.5300000000000002,5.34 -0.54,9.78 c0,0 0.24000000000000002,-9.59 1.6600000000000001,-9.36 c0.29000000000000004,0.05000000000000001 3.85,1.85 3.85,1.85 s-4.35,9.31 -1.07,16.07 c0,0 -1.24,-11.46 2.43,-15.4 l5.22,3.05 S164.41000366210938,228.48999938964846 167.87000366210938,236.38999938964844 c0,0 -0.8900000000000001,-12 2.73,-16.72 l4.73,3.68 s-4.78,9.48 -1.87,16 c0,0 0.38000000000000006,-14 2.89,-15.07 c0,0 4.13,3.64 4.77,5.14 c0,0 -3.2800000000000002,6.88 -1.25,10.51 c0,0 1.25,-9.33 2.27,-9.37 c0,0 4.12,6.18 4.55,10.42 c0,0 -0.18000000000000002,-6.3100000000000005 -3.55,-11 a12.42,12.42 0 0 1 6.3,3.27 s-0.6400000000000001,-4.37 -7.32,-4.75 c0,0 -3.4,-4.69 -4.3100000000000005,-5 c0,0 6.640000000000001,-0.56 10.67,1.23 c0,0 -3.54,-4.12 -11.89,-2.25 l-4.67,-3.81 s8.75,-1.19 12.46,0.13 c0,0 -4.27,-3.6500000000000004 -13.71,-1 l-5.08,-3 s7.46,-1.6 11.9,-1 c0,0 -4.69,-2.5300000000000002 -13.39,0.21000000000000002 l-3.63,-1.6300000000000001 s5.46,-1.08 7.07,-1.25 s1.6800000000000002,-0.6100000000000001 1.6800000000000002,-0.6100000000000001 a18.93,18.93 0 0 0 -10.26,1.1400000000000001 S151.25000366210938,208.66999938964844 151.41000366210938,208.18999938964845 z" fill="#009809" opacity="0.1" id="svg_99" class="" fill-opacity="1"/><path d="M0.8300036621093767,43.78999938964844 s43.89,-2.64 38.72,28.11 c0,0 1,5.44 -3.9,7.91 c0,0 -0.08000000000000002,-2.2800000000000002 -4.5,-1.51 a20.35,20.35 0 0 1 -4.77,0.23 a9.92,9.92 0 0 1 -5.83,-2.41 h0 S8.210003662109372,71.02999938964844 3.410003662109375,50.859999389648436 c0,0 -3.55,-4.4 -3.41,-5.53 L7.410003662109375,48.48999938964843 s-2.5300000000000002,5.35 -0.54,9.79 c0,0 0.24000000000000002,-9.59 1.6600000000000001,-9.36 c0.29000000000000004,0 3.85,1.85 3.85,1.85 s-4.35,9.31 -1.07,16.07 c0,0 -1.24,-11.47 2.43,-15.4 l5.22,3 s-5.09,9.620000000000001 -1.6400000000000001,17.46 c0,0 -0.8900000000000001,-12 2.73,-16.71 l4.73,3.68 s-4.78,9.48 -1.87,16 c0,0 0.38000000000000006,-14 2.89,-15.06 c0,0 4.13,3.64 4.77,5.14 c0,0 -3.2800000000000002,6.88 -1.25,10.51 c0,0 1.25,-9.33 2.27,-9.38 c0,0 4.12,6.19 4.55,10.42 c0,0 -0.18000000000000002,-6.3 -3.55,-11 a12.33,12.33 0 0 1 6.3,3.27 s-0.6400000000000001,-4.38 -7.32,-4.76 c0,0 -3.4,-4.69 -4.3100000000000005,-5 c0,0 6.640000000000001,-0.56 10.67,1.23 c0,0 -3.54,-4.13 -11.89,-2.25 L21.410003662109375,54.219999389648436 s8.75,-1.2 12.46,0.13 c0,0 -4.27,-3.6500000000000004 -13.71,-1 l-5.08,-3 s7.46,-1.61 11.9,-1 c0,0 -4.69,-2.5300000000000002 -13.39,0.21000000000000002 l-3.63,-1.6300000000000001 s5.47,-1.07 7.07,-1.24 s1.6800000000000002,-0.6100000000000001 1.6800000000000002,-0.6100000000000001 A18.93,18.93 0 0 0 8.410003662109375,47.15999938964843 S0.7000036621093813,44.27999938964844 0.8300036621093767,43.78999938964844 z" fill="#009809" opacity="0.1" id="svg_100" class="" fill-opacity="1"/><ellipse cx="992.4299926757812" cy="736.5599975585938" rx="46.38999938964844" ry="7.840000152587891" fill="#009809" id="svg_101" class="" fill-opacity="1"/><path d="M1011.6100036621094,723.7399993896485 c2,-1.85 3.85,-4 4.43,-6.68 s-0.56,-5.83 -3.09,-6.8 c-2.84,-1.08 -5.87,0.8900000000000001 -8.17,2.87 s-4.94,4.26 -7.95,3.84 a12.09,12.09 0 0 0 3.74,-11.32 a4.66,4.66 0 0 0 -1,-2.3 c-1.57,-1.6900000000000002 -4.43,-1 -6.32,0.36000000000000004 c-6,4.22 -7.67,12.37 -7.7,19.71 c-0.6100000000000001,-2.6500000000000004 -0.1,-5.41 -0.11000000000000001,-8.12 s-0.7600000000000001,-5.72 -3,-7.18 a9.25,9.25 0 0 0 -4.65,-1.09 c-2.7,-0.1 -5.7,0.17 -7.54,2.14 c-2.29,2.45 -1.7000000000000002,6.5600000000000005 0.30000000000000004,9.26 s5,4.39 7.8,6.25 a17.31,17.31 0 0 1 5.58,5.32 a5.23,5.23 0 0 1 0.41000000000000003,1 h16.91 A47.48,47.48 0 0 0 1011.6100036621094,723.7399993896485 z" fill="#009809" id="svg_102" class="" fill-opacity="1"/><ellipse cx="57.9900016784668" cy="794.6967163085938" rx="36.40999984741211" ry="6.159999847412109" fill="#009809" id="svg_103" class="" fill-opacity="1"/><path d="M73.04000366210937,782.9599993896485 a10.6,10.6 0 0 0 3.48,-5.24 c0.44000000000000017,-2.08 -0.44000000000000017,-4.58 -2.43,-5.34 c-2.23,-0.8500000000000003 -4.61,0.6900000000000006 -6.41,2.25 s-3.88,3.34 -6.24,3 a9.49,9.49 0 0 0 2.94,-8.88 a3.71,3.71 0 0 0 -0.8200000000000003,-1.81 c-1.24,-1.32 -3.48,-0.7500000000000003 -5,0.29000000000000015 c-4.71,3.31 -6,9.71 -6.05,15.47 c-0.47000000000000014,-2.08 -0.07,-4.24 -0.09000000000000007,-6.37 s-0.5900000000000003,-4.5 -2.39,-5.6400000000000015 a7.23,7.23 0 0 0 -3.6500000000000004,-0.8600000000000003 c-2.11,-0.08000000000000004 -4.47,0.14 -5.92,1.6800000000000006 c-1.79,1.9300000000000002 -1.33,5.16 0.23,7.27 s3.94,3.45 6.13,4.91 a13.57,13.57 0 0 1 4.38,4.18 a5,5 0 0 1 0.3300000000000002,0.7400000000000003 h13.27 A36.86,36.86 0 0 0 73.04000366210937,782.9599993896485 z" fill="#009809" id="svg_104" class="" fill-opacity="1"/><ellipse cx="149.77999877929688" cy="748.4666748046875" rx="36.40999984741211" ry="6.159999847412109" fill="#009809" id="svg_105" class="" fill-opacity="1"/><path d="M164.84000366210938,738.3966660165787 a10.58,10.58 0 0 0 3.47,-5.24 c0.45,-2.08 -0.4400000000000001,-4.57 -2.43,-5.33 c-2.22,-0.8600000000000002 -4.6,0.6900000000000004 -6.41,2.25 s-3.87,3.34 -6.23,3 a9.5,9.5 0 0 0 2.93,-8.89 a3.67,3.67 0 0 0 -0.8200000000000002,-1.8 c-1.23,-1.33 -3.47,-0.7600000000000002 -4.95,0.28 c-4.71,3.3200000000000003 -6,9.71 -6.05,15.47 c-0.4800000000000001,-2.08 -0.08000000000000003,-4.24 -0.09000000000000004,-6.37 s-0.6000000000000002,-4.49 -2.39,-5.6400000000000015 a7.15,7.15 0 0 0 -3.6500000000000004,-0.8500000000000002 c-2.12,-0.08000000000000003 -4.48,0.13 -5.92,1.6800000000000004 c-1.8,1.92 -1.33,5.15 0.23,7.27 s3.94,3.44 6.13,4.91 a13.64,13.64 0 0 1 4.38,4.17 a3.94,3.94 0 0 1 0.3200000000000001,0.7500000000000002 h13.27 A36.86,36.86 0 0 0 164.84000366210938,738.3966660165787 z" fill="#009809" id="svg_106" class="" fill-opacity="1"/><path d="M563.2100036621093,226.58999938964843 V337.11999938964846 a11.07,11.07 0 0 1 -11.09,11.09 H540.2100036621093 V215.50999938964844 h11.91 A11.07,11.07 0 0 1 563.2100036621093,226.58999938964843 z" fill="#c7cce1" id="svg_107"/><path d="M554.2900036621094,215.71999938964842 V347.99999938964845 a11.16,11.16 0 0 1 -2.17,0.21000000000000002 h-1.82 V215.50999938964844 h1.82 A11.16,11.16 0 0 1 554.2900036621094,215.71999938964842 z" opacity="0.2" id="svg_108"/><rect x="467.69000244140625" y="387.6400146484375" width="42.939998626708984" height="344.29998779296875" fill="#dcdfed" id="svg_109"/><rect x="452.54998779296875" y="768.7000122070312" width="68.29000091552734" height="9.59000015258789" fill="#c7cce1" id="svg_110"/><rect x="452.54998779296875" y="768.7000122070312" width="68.29000091552734" height="5.380000114440918" opacity="0.1" id="svg_111"/><rect x="467.69000244140625" y="725.1300048828125" width="42.939998626708984" height="6.800000190734863" opacity="0.1" id="svg_112"/><path d="M437.53,726.54h98.32a40.7,40.7,0,0,1,40.7,40.7v6.26a0,0,0,0,1,0,0H396.83a0,0,0,0,1,0,0v-6.26A40.7,40.7,0,0,1,437.53,726.54Z" fill="#dcdfed" id="svg_113"/><rect x="467.69000244140625" y="435.0400085449219" width="42.939998626708984" height="41.29999923706055" opacity="0.1" id="svg_114"/><rect x="467.69000244140625" y="432.2300109863281" width="42.939998626708984" height="41.29999923706055" opacity="0.1" id="svg_115"/><rect x="463.7099914550781" y="433.6300048828125" width="51.38999938964844" height="41.29999923706055" fill="#dcdfed" id="svg_116"/><path d="M533.7600036621094,361.69999938964844 v17.14 a16.08,16.08 0 0 1 -16.08,16.08 h-57 a16.08,16.08 0 0 1 -16.08,-16.08 V361.69999938964844 a16.07,16.07 0 0 1 16.08,-16.06 h57 A16.07,16.07 0 0 1 533.7600036621094,361.69999938964844 z" fill="#c7cce1" id="svg_117"/><path d="M533.7600036621094,361.69999938964844 v1.75 a56.09,56.09 0 0 1 -89.19,0 v-1.75 a16.07,16.07 0 0 1 16.08,-16.06 h57 A16.07,16.07 0 0 1 533.7600036621094,361.69999938964844 z" opacity="0.1" id="svg_118"/><path d="M437.61,202H540.72a4.53,4.53,0,0,1,4.53,4.53v129a48.61,48.61,0,0,1-48.61,48.61H481.69a48.61,48.61,0,0,1-48.61-48.61v-129a4.53,4.53,0,0,1,4.53-4.53Z" fill="#c7cce1" id="svg_119"/><path d="M456.67,135.37h65a17.26,17.26,0,0,1,17.26,17.26v49.45a6.22,6.22,0,0,1-6.22,6.22H445.63a6.22,6.22,0,0,1-6.22-6.22V152.62a17.26,17.26,0,0,1,17.26-17.26Z" fill="#c7cce1" id="svg_120"/><rect x="451.1499938964844" y="186.52999877929688" width="77.91000366210938" height="5.159999847412109" opacity="0.2" id="svg_121"/><rect x="444.5799865722656" y="218.55999755859375" width="89.16999816894531" height="64.70999908447266" opacity="0.1" id="svg_122"/><rect x="444.5799865722656" y="217.14999389648438" width="89.16999816894531" height="64.70999908447266" fill="#6c63ff" id="svg_123"/><g opacity="0.1" id="svg_124"><rect x="445.0799865722656" y="292.95001220703125" width="20.059999465942383" height="7.159999847412109" rx="0.7900000214576721" ry="0.7900000214576721" id="svg_125"/><rect x="467.7799987792969" y="292.95001220703125" width="20.059999465942383" height="7.159999847412109" rx="0.7900000214576721" ry="0.7900000214576721" id="svg_126"/><rect x="490.4800109863281" y="292.95001220703125" width="20.059999465942383" height="7.159999847412109" rx="0.7900000214576721" ry="0.7900000214576721" id="svg_127"/><rect x="513.1900024414062" y="292.95001220703125" width="20.059999465942383" height="7.159999847412109" rx="0.7900000214576721" ry="0.7900000214576721" id="svg_128"/><rect x="445.0799865722656" y="306.9700012207031" width="20.059999465942383" height="7.159999847412109" rx="0.7900000214576721" ry="0.7900000214576721" id="svg_129"/><rect x="467.7799987792969" y="306.9700012207031" width="20.059999465942383" height="7.159999847412109" rx="0.7900000214576721" ry="0.7900000214576721" id="svg_130"/><rect x="490.4800109863281" y="306.9700012207031" width="20.059999465942383" height="7.159999847412109" rx="0.7900000214576721" ry="0.7900000214576721" id="svg_131"/><rect x="445.0799865722656" y="320.6400146484375" width="20.059999465942383" height="7.159999847412109" rx="0.7900000214576721" ry="0.7900000214576721" id="svg_132"/><rect x="467.7799987792969" y="320.6400146484375" width="20.059999465942383" height="7.159999847412109" rx="0.7900000214576721" ry="0.7900000214576721" id="svg_133"/><rect x="490.4800109863281" y="320.6400146484375" width="20.059999465942383" height="7.159999847412109" rx="0.7900000214576721" ry="0.7900000214576721" id="svg_134"/><rect x="445.0799865722656" y="335.7200012207031" width="20.059999465942383" height="7.159999847412109" rx="0.7900000214576721" ry="0.7900000214576721" id="svg_135"/><rect x="467.7799987792969" y="335.7200012207031" width="20.059999465942383" height="7.159999847412109" rx="0.7900000214576721" ry="0.7900000214576721" id="svg_136"/><rect x="490.4800109863281" y="335.7200012207031" width="20.059999465942383" height="7.159999847412109" rx="0.7900000214576721" ry="0.7900000214576721" id="svg_137"/><rect x="513.1900024414062" y="306.9700012207031" width="20.059999465942383" height="7.159999847412109" rx="0.7900000214576721" ry="0.7900000214576721" id="svg_138"/><rect x="514.4199829101562" y="319.8699951171875" width="17.780000686645508" height="25.520000457763672" rx="1.9700000286102295" ry="1.9700000286102295" id="svg_139"/></g><rect x="445.0799865722656" y="291.5400085449219" width="20.059999465942383" height="7.159999847412109" rx="0.7900000214576721" ry="0.7900000214576721" fill="#f2f3f3" id="svg_140"/><rect x="467.7799987792969" y="291.5400085449219" width="20.059999465942383" height="7.159999847412109" rx="0.7900000214576721" ry="0.7900000214576721" fill="#f2f3f3" id="svg_141"/><rect x="490.4800109863281" y="291.5400085449219" width="20.059999465942383" height="7.159999847412109" rx="0.7900000214576721" ry="0.7900000214576721" fill="#f2f3f3" id="svg_142"/><rect x="513.1900024414062" y="291.5400085449219" width="20.059999465942383" height="7.159999847412109" rx="0.7900000214576721" ry="0.7900000214576721" fill="#d44f6a" id="svg_143"/><rect x="445.0799865722656" y="305.55999755859375" width="20.059999465942383" height="7.159999847412109" rx="0.7900000214576721" ry="0.7900000214576721" fill="#f2f3f3" id="svg_144"/><rect x="467.7799987792969" y="305.55999755859375" width="20.059999465942383" height="7.159999847412109" rx="0.7900000214576721" ry="0.7900000214576721" fill="#f2f3f3" id="svg_145"/><rect x="490.4800109863281" y="305.55999755859375" width="20.059999465942383" height="7.159999847412109" rx="0.7900000214576721" ry="0.7900000214576721" fill="#f2f3f3" id="svg_146"/><rect x="445.0799865722656" y="319.2300109863281" width="20.059999465942383" height="7.159999847412109" rx="0.7900000214576721" ry="0.7900000214576721" fill="#f2f3f3" id="svg_147"/><rect x="467.7799987792969" y="319.2300109863281" width="20.059999465942383" height="7.159999847412109" rx="0.7900000214576721" ry="0.7900000214576721" fill="#f2f3f3" id="svg_148"/><rect x="490.4800109863281" y="319.2300109863281" width="20.059999465942383" height="7.159999847412109" rx="0.7900000214576721" ry="0.7900000214576721" fill="#f2f3f3" id="svg_149"/><rect x="445.0799865722656" y="334.30999755859375" width="20.059999465942383" height="7.159999847412109" rx="0.7900000214576721" ry="0.7900000214576721" fill="#f2f3f3" id="svg_150"/><rect x="467.7799987792969" y="334.30999755859375" width="20.059999465942383" height="7.159999847412109" rx="0.7900000214576721" ry="0.7900000214576721" fill="#f2f3f3" id="svg_151"/><rect x="490.4800109863281" y="334.30999755859375" width="20.059999465942383" height="7.159999847412109" rx="0.7900000214576721" ry="0.7900000214576721" fill="#f2f3f3" id="svg_152"/><rect x="513.1900024414062" y="305.55999755859375" width="20.059999465942383" height="7.159999847412109" rx="0.7900000214576721" ry="0.7900000214576721" fill="#fecb42" id="svg_153"/><rect x="514.4199829101562" y="318.4700012207031" width="17.780000686645508" height="25.520000457763672" rx="1.9700000286102295" ry="1.9700000286102295" fill="#97d25e" id="svg_154"/><path d="M361.6300036621094,307.38999938964844 " fill="none" id="svg_155"/><rect x="489.0400085449219" y="274" width="9.609999656677246" height="1.149999976158142" fill="#c7cce1" id="svg_156"/><rect x="502.5" y="274" width="9.609999656677246" height="1.149999976158142" fill="#c7cce1" id="svg_157"/><rect x="515.9600219726562" y="274" width="9.609999656677246" height="1.149999976158142" fill="#c7cce1" id="svg_158"/></g></svg>