<svg xmlns="http://www.w3.org/2000/svg" xmlns:xlink="http://www.w3.org/1999/xlink" data-name="Layer 1" width="873.739990234375" height="509.55999755859375"><rect id="backgroundrect" width="100%" height="100%" x="0" y="0" fill="none" stroke="none"/><defs><linearGradient id="2119e7a0-1a3a-47f0-94ca-815c508cc8cf" x1="0.4999931752681732" y1="1" x2="0.4999931752681732" y2="0"><stop offset="0" stop-color="gray" stop-opacity="0.25"/><stop offset="0.54" stop-color="gray" stop-opacity="0.12"/><stop offset="1" stop-color="gray" stop-opacity="0.1"/></linearGradient><linearGradient id="c9af2afa-1938-40dc-a1df-6d95ad5ed736" x1="367.1400146484375" y1="369.2300109863281" x2="367.1400146484375" y2="343.1000061035156" xlink:href="#2119e7a0-1a3a-47f0-94ca-815c508cc8cf"/><linearGradient id="45e290ad-38e4-4ccd-bbf0-a3375439af51" x1="725.739990234375" y1="400.0199890136719" x2="725.739990234375" y2="150.02000427246094" xlink:href="#2119e7a0-1a3a-47f0-94ca-815c508cc8cf"/><linearGradient id="6eb28ab0-2165-417a-9d4c-554628bfc165" x1="832.8699951171875" y1="462.75" x2="946.8699951171875" y2="462.75" xlink:href="#2119e7a0-1a3a-47f0-94ca-815c508cc8cf"/><linearGradient id="302a07c6-4de2-4733-824a-97747ae9d7f0" x1="833.739990234375" y1="257.0199890136719" x2="833.739990234375" y2="177.02000427246094" xlink:href="#2119e7a0-1a3a-47f0-94ca-815c508cc8cf"/></defs><title>add user</title><g class="currentLayer" style=""><title>Layer 1</title><g opacity="0.5" id="svg_1"><polygon points="0 0 0 25.71 0 509.56 734.81 509.56 734.81 25.71 734.81 0 0 0" fill="url(#2119e7a0-1a3a-47f0-94ca-815c508cc8cf)" id="svg_2"/></g><rect x="10.899999618530273" y="31.709999084472656" width="716.1199951171875" height="468.7900085449219" fill="#fff" id="svg_3"/><rect x="10.899999618530273" y="9.40999984741211" width="716.1199951171875" height="34.4900016784668" fill="#f5f5f5" id="svg_4"/><circle cx="38.150001525878906" cy="26.1299991607666" r="8.359999656677246" fill="#ff5252" id="svg_5"/><circle cx="61.150001525878906" cy="26.1299991607666" r="8.359999656677246" fill="#ff0" id="svg_6"/><circle cx="84.13999938964844" cy="26.1299991607666" r="8.359999656677246" fill="#69f0ae" id="svg_7"/><rect x="301.80999755859375" y="157.0500030517578" width="131.6999969482422" height="14.109999656677246" fill="#6c63ff" opacity="0.5" id="svg_8"/><rect x="206.6999969482422" y="217.6699981689453" width="144.24000549316406" height="14.109999656677246" fill="#e0e0e0" id="svg_9"/><rect x="1623.6700439453125" y="1056.9986572265625" width="144.24000549316406" height="14.109999656677246" transform="rotate(-180 1076.1500244140625,644.6799926757811) " fill="#6c63ff" id="svg_10" class="" fill-opacity="1"/><rect x="206.1699981689453" y="247.97999572753906" width="321.92999267578125" height="14.109999656677246" fill="#e0e0e0" id="svg_11"/><rect x="206.1699981689453" y="278.29998779296875" width="321.92999267578125" height="14.109999656677246" fill="#e0e0e0" id="svg_12"/><rect x="300.25" y="343.1000061035156" width="133.7899932861328" height="26.1299991607666" fill="url(#c9af2afa-1938-40dc-a1df-6d95ad5ed736)" id="svg_13"/><rect x="301.2900085449219" y="343.76568603515625" width="131.6999969482422" height="21.3799991607666" fill="#009809" id="svg_14" class="" fill-opacity="1"/><g opacity="0.5" id="svg_15"><circle cx="725.739990234375" cy="275.0199890136719" r="125" fill="url(#45e290ad-38e4-4ccd-bbf0-a3375439af51)" id="svg_16"/></g><circle cx="725.739990234375" cy="275.0199890136719" r="117" fill="#f5f5f5" id="svg_17"/><g opacity="0.5" id="svg_18"><path d="M742.0499951171874,246.9499987792969 l-2.25,-0.8 l-0.12000000000000001,0.2 l-0.13,0 v-6.1 a14.06,14.06 0 0 0 -0.17,-2.2 a23.33,23.33 0 0 0 8,-10.56 a27.51,27.51 0 1 0 -43.57,0 a23.33,23.33 0 0 0 8,10.56 a14.06,14.06 0 0 0 -0.17,2.2 v6.68 h0 a57,57 0 0 0 -41.86,55 v50 h114 v-50 A57,57 0 0 0 742.0499951171874,246.9499987792969 z" fill="url(#6eb28ab0-2165-417a-9d4c-554628bfc165)" id="svg_19"/></g><path d="M726.74,245.1385714030266 h0 a54.88,54.88 0 0 1 54.88,54.88 v48.16 a0,0 0 0 1 0,0 H671.86 a0,0 0 0 1 0,0 V300.01857140302656 A54.88,54.88 0 0 1 726.74,245.1385714030266 z" fill="#919191" id="svg_20" class="" fill-opacity="1"/><rect x="712.1799926757812" y="227.8000030517578" width="26.8799991607666" height="33.599998474121094" rx="13.4399995803833" ry="13.4399995803833" fill="#fda57d" id="svg_21"/><polygon points="702.86 251.66 711.87 270.98 720.83 262.02 711.87 248.3 702.86 251.66" opacity="0.05" id="svg_22"/><path d="M703.1699951171875,250.71999877929687 l9,19.32 l9,-9 l-9,-13.72 l-4.12,1.26 a10.33,10.33 0 0 0 -1.18,0.44000000000000006 z" fill="#fff" id="svg_23"/><polygon points="748.42 250.72 739.37 270.98 730.41 262.02 739.62 247.57 748.42 250.72" opacity="0.05" id="svg_24"/><path d="M748.1099951171875,249.77999877929688 l-9,20.27 l-9,-9 l9.21,-14.45 l1.6900000000000002,0.48000000000000004 a44.93,44.93 0 0 1 5.35,1.9100000000000001 z" fill="#fff" id="svg_25"/><polygon points="720.47 260.37 725.48 267.68 730.77 260.37 720.47 260.37" fill="#fda57d" id="svg_26"/><path d="M692.4899951171875,286.84999877929687 s-5.34,53.1 -1.8900000000000001,56.56 " opacity="0.1" id="svg_27"/><path d="M758.4699951171875,286.84999877929687 s5.34,53.1 1.8900000000000001,56.56 " opacity="0.1" id="svg_28"/><path d="M725.6199951171875,244.09999877929687 A22.29,22.29 0 0 0 738.8699951171875,239.77999877929688 a13.44,13.44 0 0 0 -13.27,-11.32 h0 A13.44,13.44 0 0 0 712.3499951171875,239.77999877929688 A22.29,22.29 0 0 0 725.6199951171875,244.09999877929687 z" opacity="0.05" id="svg_29"/><circle cx="725.6199951171875" cy="212.77999877929688" r="26.479999542236328" id="svg_30"/><circle cx="725.6199951171875" cy="221.0800018310547" r="22.399999618530273" fill="#fda57d" id="svg_31"/><path d="M707.5699951171875,198.86999877929685 l5.66,6.91 s24.82,2.2 27.65,-3.46 s-16.34,-9.74 -16.34,-9.74 z" opacity="0.05" id="svg_32"/><path d="M707.5699951171875,198.23999877929685 l5.66,6.91 s24.82,2.2 27.65,-3.46 s-16.34,-9.74 -16.34,-9.74 z" id="svg_33"/><ellipse cx="703.1699829101562" cy="219.61000061035156" rx="1.5700000524520874" ry="2.8299999237060547" fill="#fda57d" id="svg_34"/><ellipse cx="748.0999755859375" cy="219.61000061035156" rx="1.5700000524520874" ry="2.8299999237060547" fill="#fda57d" id="svg_35"/><g opacity="0.5" id="svg_36" class=""><polygon points="873.739990234375,207.5185677409172 842.6699829101562,207.5185677409172 842.6699829101562,176.45857018232346 824.8099975585938,176.45857018232346 824.8099975585938,207.5185677409172 793.739990234375,207.5185677409172 793.739990234375,225.38857811689377 824.8099975585938,225.38857811689377 824.8099975585938,256.44856041669846 842.6699829101562,256.44856041669846 842.6699829101562,225.38857811689377 873.739990234375,225.38857811689377 873.739990234375,207.5185677409172 " fill="url(#302a07c6-4de2-4733-824a-97747ae9d7f0)" id="svg_37"/></g><rect x="826.1500244140625" y="182.44857788085938" width="15.180000305175781" height="68" fill="#009809" id="svg_38" class="" fill-opacity="1"/><rect x="2235.27001953125" y="-402.1614685058594" width="15.180000305175781" height="68" transform="rotate(90 1245.9899902343752,-779.8400268554689) " fill="#009809" id="svg_39" class="" fill-opacity="1"/></g></svg>