<svg xmlns="http://www.w3.org/2000/svg" xmlns:xlink="http://www.w3.org/1999/xlink" data-name="Layer 1" width="874" height="598" style=""><rect id="backgroundrect" width="100%" height="100%" x="0" y="0" fill="none" stroke="none"/><defs><linearGradient id="1ad885a6-086f-4584-b8fc-49709722d9e2" x1="0.5" y1="1" x2="0.5" y2="0"><stop offset="0" stop-color="gray" stop-opacity="0.25"/><stop offset="0.54" stop-color="gray" stop-opacity="0.12"/><stop offset="1" stop-color="gray" stop-opacity="0.1"/></linearGradient><linearGradient id="6f115915-dfc3-4eba-8ca8-4e2bf8885e02" x1="441.5" y1="91" x2="441.5" y2="44.97999954223633" xlink:href="#1ad885a6-086f-4584-b8fc-49709722d9e2"/><linearGradient id="4923b0dd-8e96-4c93-b583-a6b0ce88de70" x1="604.719970703125" y1="106.88999938964844" x2="604.719970703125" y2="52.5" xlink:href="#1ad885a6-086f-4584-b8fc-49709722d9e2"/><linearGradient id="ea587278-d59f-43ad-bda4-771cfa902fd4" x1="308.5" y1="227" x2="308.5" y2="145" xlink:href="#1ad885a6-086f-4584-b8fc-49709722d9e2"/><linearGradient id="e2b55b91-c252-4605-a1d1-0f99b0ab4047" x1="308.7799987792969" y1="389.5" x2="308.7799987792969" y2="307.5" xlink:href="#1ad885a6-086f-4584-b8fc-49709722d9e2"/><linearGradient id="76544af5-6047-4a4c-b2fc-a23f66c9d65b" x1="309.05999755859375" y1="550" x2="309.05999755859375" y2="468" xlink:href="#1ad885a6-086f-4584-b8fc-49709722d9e2"/><linearGradient id="daf008b2-47be-48c6-a376-1f125493a331" x1="308.5" y1="205.6300048828125" x2="308.5" y2="165.3699951171875" xlink:href="#1ad885a6-086f-4584-b8fc-49709722d9e2"/><linearGradient id="ebbb3683-2e35-4ba5-aa17-65e675e22e58" x1="796.5" y1="193" x2="796.5" y2="42" xlink:href="#1ad885a6-086f-4584-b8fc-49709722d9e2"/><linearGradient id="3d5714ec-ccf4-45ec-9ad7-6b8d237940bd" x1="796.5" y1="176" x2="796.5" y2="69" xlink:href="#1ad885a6-086f-4584-b8fc-49709722d9e2"/><linearGradient id="77e7c8c2-0f5e-4b8d-920a-2630d282c2c9" x1="628" y1="795" x2="628" y2="620" xlink:href="#1ad885a6-086f-4584-b8fc-49709722d9e2"/><linearGradient id="a6898519-96e7-44e1-b71e-df9c3f17d463" x1="102" y1="464.25" x2="102" y2="319.75" xlink:href="#1ad885a6-086f-4584-b8fc-49709722d9e2"/></defs><title>customer survey</title><g class="currentLayer" style=""><title>Layer 1</title><g opacity="0.5" id="svg_1" class=""><rect x="244.5" y="55" width="393" height="543" fill="url(#1ad885a6-086f-4584-b8fc-49709722d9e2)" id="svg_2"/></g><rect x="249.5" y="59" width="383" height="531" fill="#fff" id="svg_3" class=""/><rect x="346.5" y="44.97999954223633" width="190" height="46.02000045776367" fill="url(#6f115915-dfc3-4eba-8ca8-4e2bf8885e02)" id="svg_4" class=""/><path d="M441.4999987792969,0 c-14.67,0 -26.56,12.18 -26.56,27.2 s11.89,27.2 26.56,27.2 s26.56,-12.18 26.56,-27.2 S456.16999877929686,0 441.4999987792969,0 zm0,42.89 A15.69,15.69 0 1 1 456.7799987792969,27.200000000000003 A15.51,15.51 0 0 1 441.4999987792969,42.89 z" fill="url(#4923b0dd-8e96-4c93-b583-a6b0ce88de70)" id="svg_5" class=""/><rect x="348.5" y="44.42856979370117" width="186" height="44" fill="#009809" id="svg_6" class="" fill-opacity="1"/><path d="M441.4999987792969,1.4285714030265808 a26,26 0 1 0 26,26 A26,26 0 0 0 441.4999987792969,1.4285714030265808 zm0,41 a15,15 0 1 1 15,-15 A15,15 0 0 1 441.4999987792969,42.42857140302658 z" fill="#009809" id="svg_7" class="" fill-opacity="1"/><rect x="267.5" y="145" width="82" height="82" fill="url(#ea587278-d59f-43ad-bda4-771cfa902fd4)" id="svg_8" class=""/><rect x="267.7799987792969" y="307.5" width="82" height="82" fill="url(#e2b55b91-c252-4605-a1d1-0f99b0ab4047)" id="svg_9" class=""/><rect x="268.05999755859375" y="468" width="82" height="82" fill="url(#76544af5-6047-4a4c-b2fc-a23f66c9d65b)" id="svg_10" class=""/><rect x="270.5" y="148" width="76" height="76" fill="#009809" id="svg_11" class="" fill-opacity="1"/><rect x="270.5" y="309" width="76" height="76" fill="#919191" id="svg_12" class="" fill-opacity="1"/><rect x="270.5" y="470" width="76" height="76" fill="#919191" id="svg_13" class="" fill-opacity="1"/><rect x="396.5" y="171.4600067138672" width="104.16999816894531" height="7.269999980926514" fill="#e0e0e0" id="svg_14" class=""/><rect x="396.5" y="182.3699951171875" width="172" height="7.269999980926514" fill="#e0e0e0" id="svg_15" class=""/><rect x="396.5" y="193.27000427246094" width="159.88999938964844" height="7.269999980926514" fill="#e0e0e0" id="svg_16" class=""/><rect x="396.5" y="332.4599914550781" width="104.16999816894531" height="7.269999980926514" fill="#e0e0e0" id="svg_17" class=""/><rect x="396.5" y="343.3699951171875" width="172" height="7.269999980926514" fill="#e0e0e0" id="svg_18" class=""/><rect x="396.5" y="354.2699890136719" width="159.88999938964844" height="7.269999980926514" fill="#e0e0e0" id="svg_19" class=""/><rect x="396.5" y="493.4599914550781" width="104.16999816894531" height="7.269999980926514" fill="#e0e0e0" id="svg_20" class=""/><rect x="396.5" y="504.3699951171875" width="172" height="7.269999980926514" fill="#e0e0e0" id="svg_21" class=""/><rect x="396.5" y="515.27001953125" width="159.88999938964844" height="7.269999980926514" fill="#e0e0e0" id="svg_22" class=""/><polygon points="291.25,181.47000122070312 305.04998779296875,194.1300048828125 324.6000061035156,165.3800048828125 331.5,171.1300048828125 305.04998779296875,205.6300048828125 285.5,183.77999877929688 291.25,181.47000122070312 " fill="url(#daf008b2-47be-48c6-a376-1f125493a331)" id="svg_23" class=""/><polygon points="293.5,182 305.5,193 322.5,168 328.5,173 305.5,203 288.5,184 293.5,182 " fill="#fff" id="svg_24" class=""/><polygon points="293.5,344 305.5,355 322.5,330 328.5,335 305.5,365 288.5,346 293.5,344 " fill="#fff" id="svg_25" class=""/><polygon points="293.5,506 305.5,517 322.5,492 328.5,497 305.5,527 288.5,508 293.5,506 " fill="#fff" id="svg_26" class=""/><g opacity="0.5" id="svg_27" class="" stroke-opacity="1" stroke="#009809"><line x1="651" y1="351" x2="657" y2="351" fill="none" stroke="#009809" stroke-miterlimit="10" stroke-width="5" id="svg_28"/><line x1="668.5399780273438" y1="351" x2="801.22998046875" y2="351" fill="none" stroke="#009809" stroke-miterlimit="10" stroke-width="5" stroke-dasharray="11.54 11.54" id="svg_29"/><polyline points="807 351 813 351 813 345" fill="none" stroke="#009809" stroke-miterlimit="10" stroke-width="5" id="svg_30"/><line x1="813" y1="333.54998779296875" x2="813" y2="224.72999572753906" fill="none" stroke="#009809" stroke-miterlimit="10" stroke-width="5" stroke-dasharray="11.45 11.45" id="svg_31"/><line x1="813" y1="219" x2="813" y2="213" fill="none" stroke="#009809" stroke-miterlimit="10" stroke-width="5" id="svg_32"/></g><polyline points="231.5,182.5 97.5,182.5 97.5,308.5 " fill="none" stroke="#009809" stroke-miterlimit="10" stroke-width="5" stroke-dasharray="12" opacity="0.5" id="svg_33" class="" stroke-opacity="1"/><g opacity="0.5" id="svg_35" class=""><polygon points="873.56 107.09 796.5 42 720.64 106.95 719.96 106.57 719.96 107.09 719.44 107.09 719.96 107.38 719.96 107.61 719.96 191.96 719.96 193 873.04 193 872.11 192.48 873.56 192.48 873.56 107.09" fill="url(#ebbb3683-2e35-4ba5-aa17-65e675e22e58)" id="svg_36"/></g><polygon points="870.5,189.5 723.5,189.5 723.5,107.5 796.5,45 870.5,107.5 870.5,189.5 " fill="#fff" id="svg_37" class=""/><polyline points="722.5,107.5 795.5,148.5 869.5,107.5 " fill="#e0e0e0" id="svg_38" class=""/><g opacity="0.5" id="svg_39" class=""><polygon points="797.02 147.47 752 176 752 69 841 69 841 123.42 797.02 147.47" fill="url(#3d5714ec-ccf4-45ec-9ad7-6b8d237940bd)" id="svg_40"/></g><polygon points="797,148 754,176 754,71 839,71 839,124.4000015258789 797,148 " fill="#fafafa" id="svg_41" class=""/><polygon points="723,189 870,189 723,107 723,189 " opacity="0.05" id="svg_42" class=""/><polygon points="723,190 870,190 723,108 723,190 " fill="#f5f5f5" id="svg_43" class=""/><rect x="765" y="87" width="62" height="4" fill="#fff" id="svg_44" class=""/><rect x="765" y="95" width="62" height="4" fill="#fff" id="svg_45" class=""/><rect x="765" y="103" width="62" height="4" fill="#009809" id="svg_46" class="" fill-opacity="1"/><rect x="765" y="111" width="62" height="4" fill="#fff" id="svg_47" class=""/><rect x="765" y="119" width="62" height="4" fill="#009809" id="svg_48" class="" fill-opacity="1"/><polygon points="839,125 839,123 795.260009765625,147.30999755859375 796.4500122070312,147.97000122070312 839,125 " opacity="0.05" id="svg_49" class=""/><g opacity="0.5" id="svg_56" class=""><rect y="319.75" width="204" height="144.5" fill="url(#a6898519-96e7-44e1-b71e-df9c3f17d463)" id="svg_57"/></g><rect x="6" y="324" width="192" height="136" fill="#fff" id="svg_58" class=""/><path d="M105.94999877929689,358.34 a37.29,37.29 0 0 0 -4.8,0.3200000000000001 l4.8,36.68 l-36.91,-2.46 c-0.05000000000000002,0.81 -0.09000000000000004,1.6300000000000003 -0.09000000000000004,2.46 a37,37 0 1 0 37,-37 z" fill="#e0e0e0" id="svg_59" class=""/><path d="M93.14999877929688,351.66 a37,37 0 0 0 -32.11,34.22 l36.91,2.46 z" fill="#009809" id="svg_60" class="" fill-opacity="1"/></g></svg>